<svg xmlns="http://www.w3.org/2000/svg" xmlns:xlink="http://www.w3.org/1999/xlink" viewBox="0 0 1199.24 749.56"><defs><style>*{stroke: #f1f1f1}.a{fill:none;}.b{clip-path:url(#a);}</style><clipPath id="a" transform="translate(-0.46 -1.52)"><rect class="a" width="1200" height="750"/></clipPath></defs><g class="b"><path d="M1018.75,17.57c-21.91-2.94-44.57-6-67.24-7.67C893.88,5.59,818.18,1.52,737.93,1.52,693.57,1.52,647.82,2.76,603,5.9,480.61,14.47,352.9,19.7,223.41,21.46q-49.9.67-100.91.68-60.39,0-122-1v.21c75.69,1.17,150.26,1.27,223,.28,129.5-1.76,257.21-7,379.6-15.56,125.92-8.82,259-2.69,348.49,4,22.66,1.69,45.31,4.73,67.23,7.67,33,4.42,66.86,9,101.31,9q8.76,0,17.57-.41c20.71-1,41.48-3.19,62.09-5.91v-.2c-20.61,2.72-41.38,4.91-62.1,5.91C1097.14,28.08,1057.29,22.74,1018.75,17.57Z" transform="translate(-0.46 -1.52)"/><path d="M1159.88,42.66c-30.26,8.15-53,11.51-76.07,11.23-24.24-.29-48.14-4.71-76.56-11.25-36.9-8.48-71.89-10.59-107.19-10.59-17.15,0-34.38.49-51.93,1-19.61.57-39.89,1.16-60.55,1C771,34,754.1,33.36,737.8,32.78c-34.94-1.25-71.08-2.54-106.54,1-78.74,7.82-158.52,8.45-235.68,9.06-44.81.35-91.14.72-136.88,2.48-44.09,1.7-88.52-1.53-131.49-4.65-26.57-1.94-54-3.93-81.21-4.75-15.13-.46-30.37-.35-45.54,0v.2c15.17-.39,30.4-.49,45.54,0,27.15.82,54.63,2.81,81.2,4.75,43,3.12,87.41,6.35,131.5,4.65,45.75-1.76,92.08-2.13,136.88-2.48,77.16-.61,157-1.24,235.7-9.06,35.45-3.52,71.57-2.23,106.51-1,16.31.58,33.16,1.18,49.79,1.29,20.66.14,40.94-.45,60.56-1,53.62-1.55,104.26-3,159.06,9.59,28.44,6.54,52.35,11,76.6,11.25h2.63c22.2,0,44.38-3.4,73.5-11.25,7.46-2,15-4.11,22.4-6.15,5.75-1.6,11.55-3.21,17.37-4.79V31.7q-8.76,2.39-17.42,4.81C1174.93,38.55,1167.33,40.65,1159.88,42.66Z" transform="translate(-0.46 -1.52)"/><path d="M1193.81,11.41c-14.26,4.55-26.7,9.08-38.73,13.46-43.34,15.79-74.66,27.2-128.82,15-80.89-18.24-169.35-27.5-260.52-27.5-38.69,0-77.89,1.67-117.18,5-57.06,4.88-132.17,11-207.14,15.24-75.74,4.26-143.75,6.2-207.9,5.91-18.33-.08-52.75-6.48-92.62-13.88C98.32,16.74,47.72,7.34.46,2.54v.21C47.71,7.54,98.29,16.94,140.87,24.84c39.87,7.41,74.31,13.81,92.65,13.89,64.16.29,132.16-1.65,207.91-5.91,75-4.22,150.09-10.36,207.15-15.24C780.44,6.3,911,14.07,1026.21,40.05A193.06,193.06,0,0,0,1069,45.19c30.93,0,55.57-9,86.2-20.13,12-4.38,24.47-8.91,38.72-13.46l5.83-1.82V9.57Q1196.78,10.47,1193.81,11.41Z" transform="translate(-0.46 -1.52)"/><path d="M1180.64,65.89C1119,93.09,1070.29,114.58,1005.49,81a338,338,0,0,0-83.35-30.18c-26.65-5.93-54.65-9.07-85.62-9.6-3.15-.06-6.3-.08-9.46-.08-53.14,0-107.72,7.48-168,16.5-13.48,2-27,5.95-40,9.75-17.4,5.06-35.39,10.3-53.5,11.06-17.53.74-36.57-2.6-55-5.84-12.82-2.25-26.08-4.58-38.59-5.47-14.27-1-29-2.34-43.22-3.62-44.38-4-90.26-8.15-134.35-4.1-56.58,5.2-108.26,1.4-163-2.61-15.19-1.12-30.91-2.27-46.88-3.24C59.11,52,30.62,55.25.46,59.26v.2c30.16-4,58.64-7.27,84-5.74,16,1,31.68,2.12,46.88,3.24,54.73,4,106.42,7.81,163,2.61,44.07-4,89.94.09,134.31,4.1,14.23,1.28,28.95,2.61,43.23,3.62,12.49.89,25.75,3.22,38.57,5.47C528.9,76,548,79.34,565.5,78.6c18.14-.77,36.14-6,53.55-11.07,13.06-3.8,26.56-7.73,40-9.74C723,48.23,780.39,40.4,836.52,41.37c31,.53,58.94,3.67,85.58,9.6a337.32,337.32,0,0,1,83.3,30.16c23.67,12.28,45.19,17.22,66,17.22,36.19,0,70.16-15,109.35-32.27,5.88-2.6,11.7-5.31,17.33-7.94l1.65-.77v-.22L1198,58C1192.33,60.59,1186.51,63.3,1180.64,65.89Z" transform="translate(-0.46 -1.52)"/><path d="M1195.64,45.61c-23.18,11.59-47.15,23.58-69.58,31.16a158,158,0,0,1-32.7,7.74A83.84,83.84,0,0,1,1063,82.9c-25.8-6.51-49-14.78-71.39-22.78C944,43.13,899.06,27.08,839,31.9c-22.29,1.79-45,3.51-67,5.17C739.2,39.56,705.25,42.13,672,45c-20.58,1.77-40.61,4.45-60,7-43.81,5.86-85.18,11.4-131,6.87-48-4.74-96.53-4.25-143.46-3.77-28.31.29-57.58.58-86.62-.26-6.23-.18-20.59-1-40.47-2.21-50.53-3-134.58-8-210-9.42v.2c75.41,1.45,159.46,6.43,210,9.42,19.88,1.18,34.25,2,40.48,2.21,29,.84,58.31.55,86.63.26,46.92-.48,95.44-1,143.43,3.77,45.8,4.53,87.19-1,131-6.87,19.37-2.6,39.4-5.28,60-7,33.3-2.86,67.24-5.43,100.07-7.92,22-1.66,44.67-3.38,67-5.17,60-4.82,105,11.22,152.55,28.2,22.42,8,45.61,16.28,71.42,22.8a84.17,84.17,0,0,0,30.4,1.61A157.75,157.75,0,0,0,1126.12,77c22.44-7.59,46.42-19.58,69.61-31.17l4-2v-.22Z" transform="translate(-0.46 -1.52)"/><path d="M1033,122.55c-21.11-8.18-39.12-17.64-56.53-26.79-18.86-9.91-36.68-19.27-56.33-25.84a174.89,174.89,0,0,0-56.78-9.29q-5.11,0-10.38.27c-49.24,2.51-100.34,10.89-149.75,19-16.18,2.65-32.92,5.4-49.13,7.85-79.28,12-138.19,13.25-217.36,4.59C380.16,86.14,328.55,81.68,270,89.9c-54.85,7.7-102.72.24-153.4-7.66C93.4,78.63,69.42,74.89,44.31,72.6,31.6,71.45,16.64,72.46.46,74.34v.2c16.17-1.88,31.13-2.89,43.84-1.74,25.1,2.29,49.08,6,72.26,9.64,50.7,7.9,98.58,15.36,153.45,7.66,58.54-8.22,110.14-3.76,166.73,2.43,79.19,8.66,138.11,7.42,217.41-4.59,16.22-2.46,33-5.2,49.13-7.85C752.69,72,803.78,63.61,853,61.1a176.6,176.6,0,0,1,67.09,9c19.64,6.57,37.44,15.92,56.3,25.83,17.42,9.15,35.43,18.61,56.54,26.79a108.27,108.27,0,0,0,39.54,7.33c42.9,0,85.57-23.58,127.22-47.55v-.23C1145.28,113.6,1089.12,144.29,1033,122.55Z" transform="translate(-0.46 -1.52)"/><path d="M1198.23,72.47c-22.32,13.26-45.39,27-66.68,36.24a161.27,161.27,0,0,1-30.85,10.34c-10.43,2.2-19.64,2.59-28.17,1.18-30.12-5-57.86-18.51-84.69-31.62-29-14.19-59-28.85-92.58-33.08-47.53-6-99.32.2-149.41,6.19-23.12,2.77-45,5.38-66.47,6.89-70.67,5-125.9,8-193.37,1.29C453.76,66.72,417.77,65,381.89,65h-.51c-36.11,0-72.37,1.74-104.84,5-65.69,6.55-121.24,2.69-195-6.18C54.2,60.53,27.12,60.62.46,62.16v.2C27.12,60.82,54.18,60.73,81.54,64c73.75,8.88,129.31,12.74,195,6.19,32.47-3.23,68.71-4.95,104.82-5h.51c35.88,0,71.86,1.68,104.1,4.86,67.48,6.66,122.73,3.66,193.4-1.29,21.53-1.51,43.36-4.12,66.48-6.89,50.08-6,101.86-12.18,149.37-6.2,33.52,4.23,63.51,18.89,92.51,33.07,26.84,13.12,54.6,26.68,84.75,31.64,8.55,1.41,17.79,1,28.24-1.19a161.33,161.33,0,0,0,30.89-10.34c21.3-9.29,44.38-23,66.7-36.26l1.37-.81V71.6Z" transform="translate(-0.46 -1.52)"/><path d="M936.87,67.49c22.52,7.72,42.34,21.63,61.51,35.08,14.32,10.06,29.14,20.45,44.92,28.14,17.7,8.62,34.8,12.86,52.28,12.95h.23c26.35,0,64-24.49,103.89-50.69v-.24c-39.93,26.21-77.58,50.73-103.89,50.73h-.23c-17.45-.09-34.52-4.32-52.19-12.93-15.77-7.68-30.58-18.07-44.9-28.12C979.31,89,959.48,75,936.94,67.3c-40.1-13.77-85.94-5.24-131.16,5.34l-1.53.26c-18.9,3.3-37.64,7.87-56.1,12.93-10.41,2-20.56,3.67-30.46,4.63-18.78,1.8-37.7,4.16-56,6.43-46.4,5.78-94.38,11.75-142.68,9-22.34-1.27-45.19-3.89-67.28-6.43C413,95,373,90.42,334,92.9c-18.12,1.15-36.21,4.62-53.71,8-23.17,4.44-47.12,9-71.46,8.32-26.55-.78-52-7.27-76.61-13.54C117.36,91.87,102,88,86.43,85.28a496.91,496.91,0,0,0-86-6.9v.2a497.45,497.45,0,0,1,85.93,6.89c15.57,2.68,30.92,6.59,45.77,10.38,24.62,6.28,50.08,12.77,76.65,13.55,24.37.71,48.33-3.89,71.51-8.33,17.49-3.35,35.58-6.82,53.69-8,39-2.48,79,2.12,117.69,6.57,22.1,2.54,44.95,5.16,67.29,6.43,48.33,2.74,96.32-3.23,142.72-9,18.3-2.27,37.23-4.63,56-6.43,9.11-.88,18.42-2.33,27.95-4.14-12.9,3.57-25.67,7.36-38.27,11.1-10.23,3-19.9,5.9-29.37,8.57-35.42,10-73.75,15.45-117.19,16.74-38.78,1.15-78.09-1.07-116.11-3.21-60.2-3.4-122.45-6.91-185.45,2.59a328.57,328.57,0,0,1-84.37,2.31c-25.05-2.62-51.21-8.33-82.33-18C60.14,96.63,30.06,93.11.46,92.45v.19c29.58.67,59.65,4.19,92.05,14.21,31.13,9.63,57.31,15.34,82.37,18a329,329,0,0,0,84.42-2.31c63-9.5,125.22-6,185.41-2.59,38,2.14,77.34,4.36,116.12,3.21,43.46-1.29,81.81-6.76,117.25-16.75,9.46-2.67,19.13-5.54,29.37-8.57,13.4-4,27-8,40.74-11.78,13.48-2.65,27.39-6,41.75-9.42,5.27-1.26,10.57-2.53,15.87-3.77,37-6.31,67.83-6.28,94.23.08,32.56,7.85,58,29.1,82.55,49.64,13,10.84,26.37,22.05,40.49,30.91,15.8,9.93,30.95,15.88,46.33,18.2a51.46,51.46,0,0,0,7.54.55,73.5,73.5,0,0,0,20.76-3.34c9.49-2.8,19.89-7.33,31.8-13.85,22.14-12.12,45.45-28.87,70.12-46.6l.07-.05v-.25l-.19.14c-24.66,17.72-48,34.47-70.1,46.59-11.89,6.51-22.28,11-31.76,13.83-10.61,3.13-19.84,4-28.21,2.78-15.35-2.31-30.48-8.26-46.26-18.17-14.1-8.85-27.5-20.06-40.46-30.89-24.6-20.56-50-41.82-82.63-49.68a184.65,184.65,0,0,0-43.41-4.8,299.92,299.92,0,0,0-47.81,4.19C853.07,61.89,897.73,54.05,936.87,67.49Zm-147,8.93c-13.35,3.2-26.32,6.3-38.91,8.85,16.94-4.59,34.11-8.74,51.43-11.84Z" transform="translate(-0.46 -1.52)"/><path d="M1050.78,191.79C1014.83,184,989,158.6,964.06,134.06c-11.8-11.6-22.95-22.56-35.14-31.85-13.82-10.52-26.5-17-39.9-20.31a90,90,0,0,0-21.78-2.51c-14.33,0-30.6,2.82-49.17,8.48-25.23,7.7-51.1,19.42-76.12,30.76-23.57,10.68-45.83,20.77-65.08,26.29-34.31,9.86-74.26,15.91-115.52,17.51C520.26,164,480,161.12,444.84,154c-13.78-2.78-27.54-8.13-40.85-13.31-16.82-6.54-34.21-13.31-51.57-14.78C332,124.23,310.31,131,289.3,137.62c-8.18,2.56-15.9,5-23.41,6.87-40.33,10.11-73.32,11.58-107,4.76C127.67,142.93,98.6,130.17,61.79,114l-10.5-4.6c-16.76-7.33-33.79-8.73-50.83-7.12v.21c17-1.62,34-.22,50.75,7.09l10.49,4.6c36.83,16.17,65.91,28.93,97.17,35.26,33.69,6.82,66.71,5.35,107.07-4.77,7.52-1.88,15.24-4.3,23.42-6.87,21-6.58,42.7-13.38,63-11.66,17.33,1.47,34.71,8.23,51.52,14.77,13.32,5.18,27.08,10.54,40.89,13.32,35.14,7.08,75.44,10,116.54,8.39,41.29-1.6,81.25-7.65,115.57-17.51,19.26-5.54,41.53-15.63,65.11-26.31,25-11.33,50.88-23,76.1-30.74,28.66-8.75,51.83-10.7,70.85-6,13.37,3.32,26,9.76,39.82,20.27,12.18,9.28,23.33,20.24,35.12,31.83,25,24.56,50.81,50,86.82,57.78a106.42,106.42,0,0,0,22.84,2.5c47.4,0,85.68-32.6,122.86-64.26l3.26-2.78v-.26l-3.39,2.88C1153.38,166.63,1109,204.45,1050.78,191.79Z" transform="translate(-0.46 -1.52)"/><path d="M1196.17,110c-19.67,15.47-38.24,30.08-59.34,40.35a133,133,0,0,1-33.61,11.39,125.86,125.86,0,0,1-38.81,1.26c-35.52-4.13-65-24-93.57-43.17-13.85-9.32-28.18-19-42.78-26.43-16.34-8.37-31.45-13.15-46.2-14.62-19.09-1.91-41.83-.44-69.52,4.5-24.42,4.36-49.4,10.76-73.56,16.95-20.56,5.26-40,10.24-57.8,13.65-30.44,5.83-63.69,8.72-101.64,8.83-33.81.1-68.09-2-101.23-3.94-32.79-2-66.7-4-99.92-3.92-37.22.09-69.72,2.91-99.34,8.61-33.68,6.47-64.07,7.51-95.63,3.27-28.82-3.88-56.34-11.58-92.08-22A295.92,295.92,0,0,0,29.67,93.62c-9.54-.72-19.23-1-29.21-.93v.2c10-.1,19.66.21,29.19.93a294.85,294.85,0,0,1,61.44,11.07c35.74,10.46,63.27,18.17,92.1,22,31.58,4.24,62,3.2,95.7-3.28,29.61-5.69,62.09-8.51,99.3-8.6,33.21-.09,67.12,2,99.91,3.92,66.38,4,135,8.11,202.91-4.89,17.83-3.42,37.25-8.39,57.82-13.66C763,94.24,788,87.84,812.38,83.49c27.67-4.94,50.39-6.41,69.46-4.5,14.72,1.47,29.81,6.24,46.13,14.59,14.59,7.47,28.91,17.11,42.76,26.42,28.56,19.21,58.09,39.08,93.65,43.21a126.32,126.32,0,0,0,38.88-1.26,133.51,133.51,0,0,0,33.66-11.41c21.11-10.28,39.7-24.89,59.37-40.37l3.41-2.68v-.25Z" transform="translate(-0.46 -1.52)"/><path d="M1061.56,213.23h-.74c-20.73-.42-40.47-6.17-60.33-17.59-17.71-10.17-33.84-23.78-49.45-36.94-23.33-19.68-47.46-40-77.06-48.94a89.93,89.93,0,0,0-26-3.53c-13.38,0-28.56,2.32-45.79,7-25.82,7-53.15,18.28-77.26,28.28-17.26,7.17-33.57,13.93-47.85,18.56-69.46,22.54-168.76,25.41-241.47,7-11.71-3-22.33-6-32.6-8.9-22.16-6.29-41.3-11.73-61.61-13.81-22.14-2.28-43.75-.23-68,6.46-9.25,2.54-18.42,5.5-27.28,8.36-28.26,9.12-55,17.73-85.39,14.7-22.65-2.26-43.18-11.26-63-20C85,148.27,71.89,142.51,58.16,138.45A347.63,347.63,0,0,0,2.7,126.56l-2.24-.24v.2c.74.08,1.48.15,2.22.24A346.89,346.89,0,0,1,58.1,138.64c13.72,4.06,26.84,9.81,39.52,15.38,19.87,8.71,40.41,17.72,63.09,20,30.47,3,57.19-5.58,85.47-14.71,8.86-2.86,18-5.82,27.27-8.36,24.22-6.68,45.81-8.73,67.93-6.46,20.29,2.09,39.42,7.52,61.57,13.81,10.27,2.92,20.89,5.94,32.61,8.91,72.75,18.43,172.09,15.56,241.58-7,14.29-4.63,30.6-11.4,47.87-18.56,25.28-10.49,51.42-21.33,77.23-28.27,29.5-7.94,53-9.06,71.68-3.43,29.57,8.9,53.68,29.23,77,48.9,15.61,13.17,31.76,26.78,49.48,37,19.89,11.43,39.66,17.19,60.43,17.61h.73c27.64,0,72.2-30.8,119.35-63.38,6.23-4.31,12.51-8.65,18.8-13v-.24c-6.33,4.33-12.64,8.7-18.92,13C1133.66,182.45,1089.13,213.23,1061.56,213.23Z" transform="translate(-0.46 -1.52)"/><path d="M1183.86,140.78c-37.42,25.71-72.76,50-94.36,53.82a98.3,98.3,0,0,1-35,0A117.72,117.72,0,0,1,1023,184c-20.06-9.88-38.77-24.71-56.88-39s-37.1-29.39-57.1-39a126.58,126.58,0,0,0-44.6-12.37,146.2,146.2,0,0,0-43.27,3c-28.48,6-56.67,19-83.94,31.57-11.88,5.47-24.17,11.14-36.24,16.1C667.6,158,630.11,165.07,586.38,165.9c-39.41.75-79.92-3.67-117.82-8.57-24-3.09-44.17-8.14-63.7-13-41.31-10.33-77-19.25-128.79-3.15-34.94,10.85-67.95,21.11-100.19,23.29a171.72,171.72,0,0,1-47.52-3.15c-16.76-3.52-33.42-9.63-50.92-18.67-25.67-13.27-51.1-22-77-26.39v.21c25.85,4.39,51.24,13.1,76.89,26.35,17.52,9.06,34.19,15.17,51,18.69a171.36,171.36,0,0,0,47.58,3.16c32.26-2.18,65.28-12.44,100.23-23.3,51.74-16.08,87.4-7.17,128.68,3.15,19.54,4.88,39.73,9.93,63.72,13,37.91,4.89,78.43,9.32,117.85,8.57,43.76-.83,81.27-7.91,114.69-21.66,12.07-5,24.36-10.63,36.25-16.11,27.25-12.56,55.44-25.56,83.89-31.56a146.12,146.12,0,0,1,43.21-3A126.5,126.5,0,0,1,909,106.09c20,9.6,38.83,24.53,57.06,39s36.84,29.18,56.91,39.07a117.7,117.7,0,0,0,31.53,10.69,98.46,98.46,0,0,0,35.08,0c9.88-1.74,22.91-7.63,41-18.51,16.12-9.7,34.24-22.15,53.42-35.33q7.83-5.38,15.73-10.78v-.24Q1191.75,135.34,1183.86,140.78Z" transform="translate(-0.46 -1.52)"/><path d="M947.41,163.92c30.87,23.29,62.79,47.37,103,50.93,3.46.31,6.87.45,10.25.45,48.78,0,89.49-30.87,128.94-60.79q5-3.82,10.13-7.66v-.25q-5.16,3.87-10.25,7.75c-42.15,32-85.74,65-139,60.3-40.13-3.55-72-27.62-102.87-50.89-13.81-10.42-28.1-21.2-42.66-29.67q-3-1.71-5.85-3.26c-8.41-7.78-17.83-13.91-29.25-16.43-13.79-3-28.88-1.38-44.69,3.09-26.28,3.87-54.28,14.5-81.63,24.88C717.68,152.15,691,162.26,667,166.05a724.34,724.34,0,0,1-106.46,8.79A697,697,0,0,1,455,167.79c-12.53-1.82-24.77-3.93-36.61-6-45.71-7.9-88.88-15.37-137.1-3.49-12.23,3-24.63,6.45-36.62,9.77-32.19,8.92-65.48,18.14-97.55,19.63a161.78,161.78,0,0,1-47.67-4.37A142.79,142.79,0,0,1,52.83,162c-17.36-11.92-33.48-20.36-49.29-25.83-1-.35-2-.69-3.08-1v.21c1,.32,2,.66,3,1,15.79,5.46,31.89,13.9,49.23,25.81a142.88,142.88,0,0,0,46.72,21.33,161.85,161.85,0,0,0,47.73,4.38c32.1-1.49,65.39-10.71,97.59-19.64,12-3.32,24.39-6.76,36.62-9.77,48.18-11.86,91.33-4.4,137,3.5,11.84,2,24.09,4.16,36.62,6a697.44,697.44,0,0,0,105.58,7,724.64,724.64,0,0,0,106.49-8.79c24-3.79,50.67-13.91,76.45-23.69,26.81-10.18,54.25-20.6,80.08-24.64-24.32,7.12-50.28,20.75-75.71,34.1-28.45,14.95-55.33,29.07-79.18,34.06-63.76,13.36-133.52,13.25-191.4-.31-4.5-1.05-9-2.12-13.47-3.18-33.2-7.85-64.56-15.27-96.8-19a324.78,324.78,0,0,0-48.61-2.16A251.14,251.14,0,0,0,269,167.94c-15.36,3.61-31.38,8.52-48.34,13.71-30.45,9.33-61.94,19-92.92,22-16.77,1.66-31.68,1.24-45.59-1.29A117,117,0,0,1,39.5,185.76C28.38,178.62,19.88,170.18,11.66,162c-3.76-3.73-7.42-7.35-11.2-10.73v.27c3.73,3.34,7.35,6.91,11,10.6,8.23,8.18,16.75,16.63,27.88,23.78a117.35,117.35,0,0,0,42.73,16.66c13.92,2.53,28.85,2.95,45.64,1.29,31-3.06,62.5-12.71,93-22,17-5.19,33-10.1,48.33-13.7a250.74,250.74,0,0,1,49.39-6.48A324.38,324.38,0,0,1,367,163.82c32.23,3.7,63.58,11.12,96.77,19L477.27,186c57.9,13.56,127.69,13.68,191.48.31,23.87-5,50.77-19.13,79.24-34.08,25.93-13.62,52.41-27.52,77.13-34.52a117.54,117.54,0,0,1,33.53-.58c13,1.84,26.19,6.4,40.25,13.89,7.67,7.1,14.48,15.56,21.19,23.89s13.77,17.09,21.41,24a246.7,246.7,0,0,0,46.77,33.64c18.09,9.9,36.29,16.43,54.08,19.41a118.84,118.84,0,0,0,19.7,1.7,106.93,106.93,0,0,0,20-1.88,117.94,117.94,0,0,0,34.11-12.39c21.32-11.45,39.86-28.05,59.5-45.63,7.83-7,15.82-14.15,24-21v-.26c-8.28,6.88-16.31,14-24.19,21.1-19.62,17.57-38.16,34.16-59.46,45.6a117.53,117.53,0,0,1-34,12.37,110.91,110.91,0,0,1-39.62.19c-17.77-3-35.94-9.51-54-19.4a246.33,246.33,0,0,1-46.74-33.61c-7.63-6.91-14.62-15.59-21.38-24-6.55-8.14-13.21-16.4-20.66-23.39q2.58,1.38,5.17,2.89C919.32,142.72,933.6,153.5,947.41,163.92Zm-88.73-47a98.89,98.89,0,0,0-14-1,132.13,132.13,0,0,0-18.1,1.32c15.23-4.15,29.79-5.61,43.11-2.67,11.12,2.45,20.35,8.35,28.59,15.86C884.49,123.16,871.47,118.71,858.68,116.9Z" transform="translate(-0.46 -1.52)"/><path d="M696.69,187.45c18.84-4.17,37.66-11.28,55.85-18.16,20.05-7.58,40.78-15.41,61.11-19a123.51,123.51,0,0,1,30.53-1.92,97.36,97.36,0,0,1,30.7,7.13c21.24,8.72,41.45,19.61,61,30.14,20.88,11.26,42.48,22.9,64.87,31.55,25.06,9.67,48.71,14.58,72.33,15l2.71,0c50.15,0,78.7-25.3,108.89-52.06,4.93-4.37,9.91-8.77,15-13.11v-.26c-5.17,4.37-10.19,8.82-15.16,13.22-30.16,26.73-58.68,52-108.76,52l-2.71,0c-23.59-.42-47.22-5.33-72.26-15-22.38-8.64-44-20.28-64.85-31.53-19.54-10.54-39.75-21.43-61-30.15a97.35,97.35,0,0,0-30.76-7.15,123.85,123.85,0,0,0-30.57,1.92c-20.35,3.63-41.09,11.47-61.15,19.06-18.19,6.87-37,14-55.82,18.14-36.68,8.11-66.92,8.48-106.48,7.35a147.61,147.61,0,0,0-30.31.06c-9.45.56-18.87,1.54-28.11,2.5-11.11,1.16-22.42,2.34-33.75,2.76-5.12-1.09-11.42-2.67-19.6-4.83l-10.69-2.84c-48.62-13-102.94-27.44-152.82-23.88a186.88,186.88,0,0,0-42.88,5c-20,4.68-40.17,12.11-61.53,20-57,21-116,42.73-171.7,9.56-10.34-6.15-18.79-14.71-27-23-3.69-3.73-7.43-7.51-11.36-11.09v.27c3.88,3.54,7.57,7.27,11.22,11,8.18,8.29,16.64,16.86,27,23,20.78,12.38,42,17.13,63.41,17.13,36.06,0,72.65-13.48,108.47-26.68,21.35-7.87,41.53-15.3,61.5-20a186.34,186.34,0,0,1,40-5c-5.92.5-11.78,1.27-17.54,2.33-30.4,5.6-59.55,16.67-87.74,27.38-21.89,8.31-44.53,16.91-67.42,22.79-25.65,6.59-49,9-71.43,7.42C39.72,226.5,21,217.21.46,206v.23c20.48,11.15,39.25,20.43,67.46,22.45,22.43,1.59,45.81-.83,71.49-7.43,22.9-5.88,45.54-14.48,67.44-22.79,28.18-10.71,57.32-21.78,87.7-27.37a184.66,184.66,0,0,1,20.34-2.55h0c30.89,0,58.61,7.6,87.43,15.51,20.25,5.56,41.18,11.31,64.13,14.65A173.1,173.1,0,0,0,498,200.12c15.1,3.22,20,2.23,32.59-.32,6.23-1.25,14.75-3,27.44-4.7.62-.09,1.25-.16,1.87-.24,6.85-.4,13.71-.57,20.53-.36l9.75.3c8.88.78,17.73,2.07,26.45,3.34,19.63,2.86,39.93,5.81,60.25,3.07,23.46-3.17,46.37-11.43,68.54-19.41,18.67-6.72,38-13.68,57.12-17.33,21.41-4.09,40.53-3.56,58.45,1.63,26.37,7.62,53.31,21.32,81.82,35.83,26.8,13.63,54.51,27.73,82.47,36.84a201,201,0,0,0,42.19,9.32,152.31,152.31,0,0,0,15.35.8A132,132,0,0,0,1110,246.1c13.21-2.78,25.39-9.17,38.33-20.12,11.41-9.66,21.62-21.33,32.43-33.68,6.17-7,12.4-14.16,18.92-20.93v-.29c-6.57,6.82-12.86,14-19.07,21.09-10.81,12.35-21,24-32.41,33.66-12.91,10.93-25.06,17.31-38.24,20.07a136.22,136.22,0,0,1-42.51,2,201.19,201.19,0,0,1-42.15-9.31c-27.94-9.11-55.65-23.2-82.44-36.83-28.52-14.51-55.46-28.21-81.85-35.85a112.41,112.41,0,0,0-31.38-4.34,144.57,144.57,0,0,0-27.17,2.71c-19.15,3.66-38.47,10.61-57.15,17.34-22.15,8-45.06,16.23-68.5,19.4-20.29,2.74-40.57-.21-60.19-3.07-7.74-1.12-15.58-2.27-23.47-3.06C631.28,195.9,660.93,195.36,696.69,187.45ZM466.48,198.54c-22.94-3.34-43.87-9.08-64.1-14.64-28-7.68-54.9-15.07-84.71-15.51,49.08-2.84,102.28,11.34,150,24.05l10.69,2.84c7.77,2.06,13.85,3.59,18.84,4.67A171.35,171.35,0,0,1,466.48,198.54Zm64,1.07c-12.35,2.49-17.27,3.49-31.73.48,11.07-.45,22.12-1.6,33-2.73,8.27-.86,16.68-1.74,25.13-2.31C544.79,196.73,536.58,198.39,530.53,199.61Zm49.88-5.31q-3-.09-6.07-.09-5.1,0-10.22.23a148.22,148.22,0,0,1,22,0Z" transform="translate(-0.46 -1.52)"/><path d="M1199.7,191c-1.81,2.47-3.52,5-5.19,7.56-2.61,2.36-5.18,4.73-7.74,7.09-11.65,10.75-22.67,20.9-36.37,28.57-15.42,8.63-31.91,12.8-51.91,13.11-30.3.48-61.81-3.64-96.33-12.58-30.86-8-61.52-19.12-91.17-29.87-20.86-7.56-42.42-15.37-64.24-22.2-41-12.84-72.74-2-109.48,10.48-12.78,4.35-26,8.85-40.38,12.6-35.23,9.21-63.1,8.24-98.39,7-16.09-.56-31.67,1.12-46.74,2.75-21,2.26-40.73,4.39-61.37.91-19.95-3.37-40.29-8.08-60-12.64-47.69-11.06-97-22.5-147.34-16.6-21.7,2.54-43.77,10.06-65.55,18.79-19.67,6.31-39.13,14.21-58,21.88-10.75,4.36-21.61,8.77-32.59,12.91-2.07.55-4.13,1.08-6.19,1.56A160.1,160.1,0,0,1,84.33,247a118.25,118.25,0,0,1-36.68-5.4c-16.18-5.07-31.9-13.65-47.19-22.67v.23c15.27,9,31,17.57,47.13,22.64a119,119,0,0,0,36.74,5.4,161.15,161.15,0,0,0,36.44-4.68c1.43-.34,2.87-.7,4.31-1.07-26.38,9.88-53.48,18.17-81.54,20.7-15.61,1.42-29.78-1.52-43.08-6.86v.22c13.3,5.32,27.48,8.25,43.1,6.84,28.72-2.59,56.44-11.22,83.41-21.4,22.15-5.92,44.36-15.35,65.9-24.49,8.18-3.47,16.44-7,24.74-10.3q4.57-1.47,9.15-2.81c25.55-7.47,48.64-10.94,70.58-10.59,17.82.28,35.86,3.56,55.14,10,17.24,5.78,34,13.57,50.23,21.11,18.38,8.54,37.39,17.38,57.75,23.69,15.36,4.76,24.59,6.31,31.87,5.34,7.1-.95,12.17-4.37,19.2-9.11a181.73,181.73,0,0,1,23.63-13.92c24.85-12.1,48.14-11,72.81-9.91,6.92.32,14.07.65,21.41.69,29,.18,58.29-7.28,86.57-14.51,17.49-4.47,35.58-9.1,53.34-11.82,19.89-3.05,37.31-3.34,53.24-.89,38.67,5.95,76.45,19.31,113,32.24,40.4,14.3,82.18,29.08,125.89,34.22l4.9.58c14.29,1.7,27.2,3.23,39.29,3.23a111.25,111.25,0,0,0,14.86-.92c17.9-2.39,32.32-9.85,45.37-23.47,10.09-10.52,16.78-21.33,23.26-31.78,1.85-3,3.69-6,5.59-8.88q2.47-2.24,5-4.46v-.26c-1.56,1.35-3.09,2.71-4.61,4.07,1.49-2.27,3-4.51,4.61-6.7ZM192.8,216.26c-20.9,8.86-42.42,18-63.89,23.94,10.32-3.93,20.54-8.08,30.67-12.19,18-7.31,36.56-14.83,55.29-21C207.47,210,200.1,213.16,192.8,216.26Zm996.11-8.82c-6.47,10.44-13.16,21.24-23.23,31.74-13,13.59-27.41,21-45.25,23.41-16.29,2.18-33.82.1-54.11-2.31l-4.9-.58c-43.68-5.14-85.45-19.92-125.84-34.21-36.55-12.93-74.33-26.3-113-32.24a145.84,145.84,0,0,0-22.33-1.65,204.42,204.42,0,0,0-31,2.54c-17.77,2.72-35.86,7.34-53.36,11.81-27.92,7.14-56.78,14.52-85.45,14.52h-1.07c-7.33,0-14.49-.37-21.41-.69-24.68-1.12-48-2.19-72.9,9.93a180.11,180.11,0,0,0-23.65,13.94c-7,4.72-12.06,8.13-19.12,9.07-7.24,1-16.45-.58-31.78-5.33-20.35-6.31-39.35-15.14-57.73-23.68-16.22-7.54-33-15.34-50.25-21.12-19.3-6.48-37.35-9.76-55.2-10-22-.35-45.06,3.12-70.63,10.6q-3.27,1-6.53,2c20.93-8.29,42.11-15.33,62.94-17.77,50.29-5.88,99.59,5.55,147.27,16.6,19.67,4.56,40,9.28,60,12.65,20.66,3.49,40.46,1.35,61.42-.91,15.06-1.63,30.64-3.31,46.71-2.75,35.31,1.23,63.19,2.2,98.45-7,14.39-3.76,27.61-8.26,40.39-12.61,36.71-12.5,68.41-23.3,109.36-10.48,21.82,6.83,43.38,14.64,64.23,22.2,29.65,10.75,60.32,21.87,91.19,29.87,34.54,9,66.07,13.07,96.39,12.59,20-.31,36.55-4.49,52-13.13,13.72-7.69,24.74-17.85,36.41-28.61q3.55-3.27,7.18-6.58C1192.34,201.9,1190.63,204.66,1188.91,207.44Z" transform="translate(-0.46 -1.52)"/><path d="M1199.7,226.79c-6.61,6.94-12.37,15.6-18,24.05-9.63,14.53-19.6,29.55-34,36.07-9.55,4.31-23.39,5.28-42.31,3-16.49-2-34.57-6.26-50.52-10-12.81-3-24.9-5.83-34.18-7.06-6.63-.88-13.38-1.74-19.91-2.57-37.26-4.77-75.79-9.69-112.6-19.49C874,247,859.76,240.88,846,235c-20.55-8.78-41.8-17.87-63.13-19.29-1.8-.12-3.61-.17-5.44-.17-17.26,0-35.78,5.06-53.74,10-14.14,3.86-28.76,7.86-42.34,9.22-19.68,2-38.87-.1-57.43-2.09-14.81-1.59-30.12-3.23-45.68-2.85-25,.6-44.27,9.63-63,18.36-7.56,3.54-15,7-22.62,9.85,6.2-3.35,12.07-7.68,18.43-12.36,15.72-11.58,33.54-24.71,64.64-28.09,17.82-1.94,34.9-.11,51.42,1.66,20.53,2.2,41.75,4.48,64.82-.36,9.12-1.91,18.21-4.42,27-6.85,20.29-5.61,41.28-11.41,63.49-9.91,47.37,3.19,96,18.77,143.09,33.83,37.49,12,76.24,24.41,114.18,30.51,6.3,1,13.5,2.51,21.12,4.09,30.78,6.39,69.07,14.34,91.45.13,12.63-8,18.32-22.32,23.83-36.13,3.78-9.48,7.69-19.29,13.81-26.9a46,46,0,0,1,9.74-8.8v-.24a46.39,46.39,0,0,0-9.9,8.92c-6.13,7.63-10,17.45-13.83,27-5.5,13.78-11.18,28-23.76,36-22.31,14.17-60.56,6.23-91.29-.15-7.63-1.58-14.83-3.08-21.14-4.09-37.92-6.11-76.67-18.51-114.15-30.51-47.07-15.07-95.74-30.65-143.13-33.84-22.25-1.5-43.25,4.31-63.57,9.92-8.78,2.43-17.86,4.94-27,6.85-23,4.83-44.25,2.55-64.76.36-16.53-1.78-33.62-3.61-51.47-1.67-31.15,3.39-49,16.53-64.73,28.13-6.79,5-13,9.6-19.72,13A95.34,95.34,0,0,1,464,264.41c-11.1-.65-23.6-4.58-38.36-12-38.76-19.37-71.13-34.85-105.41-43.11-38.66-9.31-74.5-7.88-112.77,4.49-20,6.46-40.52,16.26-62.26,26.63C121.57,251.75,97.11,263.41,72.53,271c-26.1,8-49,10.22-69.91,6.73v.21c20.91,3.49,43.85,1.27,70-6.75,24.6-7.55,49.06-19.22,72.72-30.5,8.41-4,16.65-8,24.74-11.63-12.52,5.9-25,12.61-37.18,19.21-20.78,11.22-42.26,22.81-64,30.39a157.42,157.42,0,0,1-33,8,113.24,113.24,0,0,1-33.3-.65v.2a113.44,113.44,0,0,0,33.33.65,157.72,157.72,0,0,0,33-8c21.72-7.59,43.21-19.18,64-30.4,24.18-13,49.17-26.54,74.07-33.31a187.65,187.65,0,0,1,45.91-6.78,191.18,191.18,0,0,1,41.79,3.89c26.9,5.39,52,15.55,78.67,26.31,19.09,7.71,38.83,15.69,60,22.13a87,87,0,0,0,30.67,4,50.91,50.91,0,0,0,12.93-.82,53.75,53.75,0,0,0,14.38-5.08c8.13-2.93,16-6.61,24-10.37C534,239.62,553.33,230.6,578.25,230c15.55-.38,30.86,1.26,45.66,2.85,18.57,2,37.77,4.05,57.47,2.09,13.6-1.36,28.23-5.36,42.37-9.23,19.85-5.43,40.37-11.05,59.12-9.8,21.3,1.42,42.53,10.5,63.06,19.27,13.76,5.89,28,12,42.21,15.76,36.82,9.81,75.35,14.73,112.62,19.49,6.53.84,13.29,1.7,19.91,2.58,9.28,1.22,21.36,4.06,34.16,7.05,16,3.75,34.05,8,50.55,10a149.37,149.37,0,0,0,18.13,1.23c10,0,18.07-1.4,24.28-4.21,14.48-6.54,24.46-21.59,34.11-36.14,5.55-8.38,11.26-17,17.8-23.87ZM433.42,260.46C412.3,254,392.56,246,373.48,238.33c-26.63-10.76-51.79-20.92-78.71-26.32a192.5,192.5,0,0,0-38.13-3.92c-1.24,0-2.47,0-3.7,0a188.12,188.12,0,0,0-46,6.78,190.47,190.47,0,0,0-19.48,6.54c6.76-2.77,13.43-5.27,20-7.41,38.24-12.36,74-13.79,112.66-4.48,34.26,8.25,66.62,23.72,105.37,43.09,14,7,26.05,10.91,36.76,11.85A87.78,87.78,0,0,1,433.42,260.46Zm43.51,3.14a50.76,50.76,0,0,1-11.06.89,95.4,95.4,0,0,0,23.93-5.24A52.33,52.33,0,0,1,476.93,263.6Z" transform="translate(-0.46 -1.52)"/><path d="M75.37,292.82c16.39-7.27,32.53-16.91,49.61-27.12,28.23-16.87,57.42-34.31,87.37-39.77,34-6.2,65.61-4.75,99.48,4.55,30.54,8.39,60.19,22.45,91.59,37.33l8.87,4.2c21.36,10.09,38.27,13.41,53.22,10.43,13.7-2.73,24.66-10.33,37.36-19.13C517,253.51,533,242.4,557,235.26c23.07-6.88,46.26-3.73,70.81-.4,17.87,2.43,36.36,4.94,54.81,3.22,15.17-1.41,30.27-5.28,44.87-9,12.93-3.31,26.29-6.73,39.61-8.43,29.33-3.73,47.41,2.87,70.3,11.23,9.34,3.41,19,6.94,30.6,10.24,33.16,9.41,68.78,14.08,103.23,18.6,12.4,1.63,25.22,3.31,37.58,5.18,11.69,1.76,25.56,5.3,40.24,9,29.63,7.56,63.21,16.12,86.3,11.44,9.24-1.88,17.8-6.05,26.18-12.76,7.49-6,14.19-13.46,20.68-20.68a224.23,224.23,0,0,1,17.52-18.07v-.27a226.07,226.07,0,0,0-17.67,18.2c-6.48,7.22-13.18,14.68-20.65,20.66-8.35,6.69-16.89,10.85-26.1,12.72-23,4.68-56.6-3.88-86.21-11.43-14.69-3.75-28.56-7.29-40.26-9.05-12.36-1.87-25.18-3.55-37.58-5.18-34.44-4.51-70.06-9.18-103.2-18.6-11.59-3.29-21.25-6.82-30.59-10.23-22.92-8.36-41-15-70.4-11.24-13.33,1.7-26.7,5.12-39.63,8.44-14.59,3.73-29.68,7.6-44.84,9-18.43,1.72-36.9-.79-54.76-3.21-24.57-3.34-47.78-6.5-70.9.4-24,7.14-40,18.26-54.15,28.07-12.68,8.79-23.63,16.38-37.29,19.1-14.91,3-31.78-.34-53.1-10.41l-8.86-4.2c-31.41-14.88-61.07-28.95-91.63-37.34-33.9-9.31-65.53-10.76-99.56-4.56-30,5.47-59.2,22.92-87.44,39.8-17.08,10.2-33.21,19.84-49.59,27.1-18.55,8.23-34.06,11.88-48.81,11.49-5.26-.14-13.62-3-23.86-7.48v.21c10.23,4.47,18.58,7.33,23.85,7.47C41.25,304.7,56.79,301.05,75.37,292.82Z" transform="translate(-0.46 -1.52)"/><path d="M1199.7,263.36a163.83,163.83,0,0,1-19.92,16.22c-21,14.14-48.74,20.48-84.64,19.36-31.45-1-64.11-7.31-95.68-13.42-18.72-3.63-36.4-7-52.42-9-26.88-3.34-53.59-9.57-79.42-15.59-24.58-5.73-50-11.66-75-14.89-28-3.63-52.62-3.46-75.41.52-25.8,4.5-53,1.07-79.37-2.24-19.35-2.44-39.37-5-58.07-4.11a119.16,119.16,0,0,0-27.32,4.16,90.14,90.14,0,0,0-25.53,11.59c-8.6,5.67-16.16,11.27-23.48,16.68-30.78,22.77-53,39.23-103.45,23.42-23.77-7.46-44.28-19.53-64.11-31.2C301,244.26,268,224.85,221,231.54c-37.63,5.34-68.31,26.13-98,46.23-13.93,9.44-28.34,19.2-43.13,27.07-16.54,8.81-31.92,14.32-47,16.84a82.44,82.44,0,0,1-30.22-.45v.22a81.12,81.12,0,0,0,16.13,1.62,86,86,0,0,0,14.12-1.19C48,319.35,63.38,313.84,80,305c14.79-7.88,29.2-17.64,43.14-27.09,29.66-20.09,60.31-40.86,97.89-46.2,47-6.67,79.94,12.73,114.82,33.26,19.84,11.68,40.36,23.76,64.15,31.22,23.3,7.3,42.12,8.16,59.26,2.72,15.76-5,29-14.81,44.37-26.17,7.31-5.41,14.88-11,23.48-16.68a89.53,89.53,0,0,1,25.46-11.56,119.45,119.45,0,0,1,27.28-4.15c18.68-.85,38.69,1.67,58,4.11,26.35,3.31,53.6,6.74,79.42,2.23,22.77-4,47.42-4.14,75.36-.52,25,3.24,50.38,9.17,75,14.9,25.83,6,52.54,12.25,79.43,15.59,16,2,33.69,5.41,52.41,9,31.58,6.12,64.25,12.45,95.71,13.43,35.95,1.12,63.67-5.23,84.76-19.4a161.83,161.83,0,0,0,19.81-16.11Z" transform="translate(-0.46 -1.52)"/><path d="M1199.7,315.62c-17.15,11.57-34.3,21.38-59.41,18.72-20.7-2.2-42.37-11.06-63.33-19.63-16.11-6.58-32.77-13.39-48.8-17.08-39-9-81.66-14.42-134.2-17.09-26.84-1.37-54.55-.88-81.35-.4-41.79.74-85,1.51-126.43-4.7-20.1-3-37.61-8.51-54.53-13.83-20.53-6.44-39.91-12.54-59.46-12.17-21.64.41-41.44,8.65-62.34,25.93-6.4,5.3-12.19,10.65-17.79,15.83-10.85,10-21.09,19.48-32.84,25.55-13,6.7-26.63,8.65-42.92,6.13-31.94-4.94-60.94-18.23-89-31.08-19.86-9.1-40.39-18.52-61.69-24.8-23.87-7.05-46.26-9.35-68.43-7-34.52,3.59-62.28,24.26-89.12,44.25-13.42,10-27.29,20.32-41.55,28C50.6,340.87,35.67,345.36,20.9,346a87.52,87.52,0,0,1-18.28-1.22V345a87.7,87.7,0,0,0,14.82,1.28c1.16,0,2.32,0,3.47-.07,14.8-.6,29.76-5.1,45.72-13.74,14.26-7.72,28.14-18.05,41.57-28.05,26.82-20,54.55-40.63,89-44.21,22.15-2.31,44.51,0,68.36,7,21.28,6.28,41.8,15.69,61.66,24.79,28.05,12.86,57.07,26.15,89,31.1,16.33,2.53,30,.57,43.05-6.16,11.76-6.07,22-15.54,32.88-25.58,5.59-5.17,11.38-10.51,17.78-15.81,20.86-17.26,40.63-25.48,62.22-25.89,19.5-.36,38.87,5.72,59.39,12.16,16.93,5.32,34.44,10.82,54.56,13.84,41.43,6.21,84.66,5.44,126.47,4.7,26.79-.48,54.49-1,81.33.4,52.53,2.67,95.16,8.1,134.17,17.08,16,3.69,32.66,10.5,48.77,17.08,21,8.57,42.65,17.43,63.38,19.64,25.12,2.66,42.28-7.12,59.43-18.68Z" transform="translate(-0.46 -1.52)"/><path d="M28,332.43c14.43-1.93,29-7.22,44.63-16.17,13.94-8,27.48-18.16,40.57-28,29.22-21.95,59.45-44.66,98.26-47.22,18.33-1.21,37,1.62,57.2,8.63,18,6.26,35.53,15.24,52.48,23.92,23.74,12.15,48.29,24.72,74.94,30.38,54.42,11.54,73.87-6.05,98.49-28.33,11.73-10.62,25-22.65,43.93-32.81,35.59-19.14,80.58-6.94,124.09,4.87,21,5.71,40.92,11.1,59.5,13,33.59,3.46,67.75,5.88,100.78,8.23,53.31,3.78,108.44,7.7,162.45,16.05,16.8,2.6,33.37,6.4,49.4,10.09,27.92,6.41,54.29,12.47,80.26,12.14a125.38,125.38,0,0,0,38.43-6.15,120.69,120.69,0,0,0,37.46-20.55c3-2.41,6-4.71,8.85-6.93v-.26q-4.37,3.38-9,7a120.47,120.47,0,0,1-37.39,20.52A125.41,125.41,0,0,1,1115,307c-25.93.33-52.3-5.72-80.21-12.14-16-3.68-32.6-7.49-49.41-10.09-54-8.35-109.15-12.27-162.46-16.05-33-2.35-67.2-4.77-100.78-8.23-18.56-1.91-38.43-7.3-59.46-13-43.55-11.81-88.58-24-124.24-4.85-18.92,10.17-32.23,22.22-44,32.85-24.58,22.23-44,39.8-98.31,28.27-26.63-5.65-51.16-18.21-74.89-30.36-17-8.68-34.5-17.66-52.51-23.93-20.18-7-38.91-9.85-57.27-8.64-38.88,2.56-69.12,25.29-98.37,47.26-13.09,9.84-26.62,20-40.55,28C56.93,325,42.36,330.3,28,332.23A70.83,70.83,0,0,1,2.62,331v.2A70.77,70.77,0,0,0,28,332.43Z" transform="translate(-0.46 -1.52)"/><path d="M1199.7,351.94c-1.71.53-3.43,1.05-5.15,1.53-21.49,6-41.31,7.41-60.58,4.22-35.55-5.88-66.57-20.33-96.56-34.3-5.8-2.71-11.67-5.44-17.6-8.12,56.57,15,114.79,29.9,162.21,14a117.61,117.61,0,0,0,17.68-7.8v-.22a117.86,117.86,0,0,1-17.74,7.83c-47.69,16-106.35.79-163.26-14.3a420.12,420.12,0,0,0-41.48-16.56c-23.45-7.71-45.68-11.49-68-11.58-17.85-.06-37,2.76-56.43,6.59-6.41.08-12.78.19-19.11.29-47.14.8-95.89,1.63-142.47-9.88-11.9-2.94-23.58-6.34-34.87-9.62-27-7.86-52.57-15.28-78-15.81l-1.64,0a61.45,61.45,0,0,0-8.69.21,112.1,112.1,0,0,0-27.68,5.05c-13.34,4.23-25.88,11-38.34,20.56-29.12,22.45-49.78,33.36-71.29,37.64C406.85,326.4,381,322.77,347,309.88c-11.86-4.5-23.56-9.62-34.87-14.57C291.78,286.4,272.53,278,252,272.61s-39.37-6.82-58.23-4.36A100.73,100.73,0,0,0,172.91,270c-30.92,5.92-49.12,30.53-66.71,54.33q-2.65,3.58-5.27,7.08c-13.82,13.32-28.71,24.08-49.16,26.82-15.81,2.13-31.95,0-49.15-6.49v.22c17.21,6.47,33.36,8.59,49.17,6.47,20.08-2.7,34.8-13.08,48.4-26-7.06,9.37-14.1,18.06-22.14,25.2C66.39,367.92,54.66,373.14,41.13,374c-11.73.74-24.44-1.44-38.51-6.6v.23c12.28,4.49,23.53,6.71,34,6.71,1.53,0,3-.05,4.53-.14,13.58-.85,25.35-6.09,37-16.46,8.33-7.4,15.59-16.46,22.9-26.21,5-4.82,9.87-10,14.81-15.21,19-20.12,38.59-40.92,70.73-46.75q3.57-.65,7.14-1.11c12.48.22,25.86,2.55,40.44,7,20.49,6.28,41.31,16.07,61.44,25.55,26.48,12.46,53.87,25.34,80.21,29.94,30.86,5.38,54.54,3.79,76.79-5.15,20.64-8.3,38.23-22.06,60.5-39.47,2.94-2.31,6-4.69,9.1-7.11,11.56-9,22.39-14.89,33.11-18.11a65.49,65.49,0,0,1,12.76-2.53c2.84-.17,5.72-.23,8.66-.21a63.52,63.52,0,0,1,7.33.77c18.16,2.94,34.73,13.26,52.28,24.2,19,11.83,38.64,24.08,62.81,28.91,36.41,7.29,78.9-2.3,120-11.57,11.15-2.51,22.44-5.06,33.66-7.27,25.45-.31,51.35-.16,76.65,2.34,26.75,2.65,56.06,10.42,87.1,18.65l2,.55c6.3,2.84,12.53,5.74,18.69,8.61,30,14,61,28.44,96.61,34.32,19.3,3.19,39.14,1.81,60.67-4.23,1.7-.47,3.39-1,5.09-1.51ZM186.58,269.37c-32.2,5.83-51.84,26.66-70.84,46.8-4.64,4.92-9.21,9.77-13.9,14.34,1.5-2,3-4,4.52-6.09,17.57-23.76,35.74-48.34,66.59-54.25a99.94,99.94,0,0,1,18.84-1.74h.6Q189.5,268.83,186.58,269.37Zm368.71-8.44c-10.74,3.22-21.59,9.16-33.17,18.15-3.12,2.42-6.16,4.8-9.1,7.1-22.26,17.41-39.84,31.16-60.45,39.44-22.22,8.93-45.87,10.52-76.68,5.14-26.32-4.59-53.69-17.47-80.17-29.93-20.13-9.47-41-19.27-61.46-25.55-14.08-4.31-27-6.64-39.16-7,18.39-2.22,36.67-.74,56.83,4.52,20.53,5.37,39.78,13.78,60.16,22.7,11.32,4.95,23,10.06,34.88,14.57,34,12.91,59.88,16.53,83.85,11.76,21.54-4.28,42.22-15.2,71.38-37.67,12.43-9.59,24.95-16.31,38.27-20.53a110.66,110.66,0,0,1,23.78-4.76A66.82,66.82,0,0,0,555.29,260.93ZM819.14,300.5c-41.07,9.26-83.54,18.84-119.92,11.57-24.13-4.83-43.76-17.06-62.74-28.89-17.56-10.95-34.15-21.29-52.35-24.23-1.21-.2-2.42-.36-3.63-.49,24.68.88,49.54,8.1,75.82,15.74,11.3,3.29,23,6.68,34.88,9.62,46.61,11.52,95.37,10.69,142.52,9.89q9-.15,18-.28C840.88,295.6,829.94,298.06,819.14,300.5Zm197.51,13.72c-31-8.23-60.37-16-87.13-18.66-19.49-1.93-39.33-2.46-59-2.46q-8.29,0-16.55.11c18.81-3.68,37.38-6.38,54.71-6.38h.62c22.26.09,44.47,3.87,67.9,11.57a416.92,416.92,0,0,1,40.36,16.05Z" transform="translate(-0.46 -1.52)"/><path d="M42.57,380.28c25.85-2.56,39.29-23.22,53.52-45.09,8.15-12.51,16.57-25.46,27.7-35.51a69.29,69.29,0,0,1,44.06-18.32c19-1.1,39.35.95,62.24,6.24,20.42,4.72,40.94,11.54,60.78,18.13s40.46,13.44,61,18.18c23,5.31,43.46,7.36,62.56,6.27,30.94-1.77,56-18.48,80.23-34.64,12.92-8.61,25.13-16.75,38.17-22.79,14.76-6.83,28-9.73,41.56-9.11,12.46.56,25,4.38,38.2,11.68,11.81,6.51,23.13,15.12,34.07,23.45,11.33,8.64,23,17.56,35.36,24.18,13.82,7.42,26.93,11.08,40.09,11.19,18.25.15,37.06-7.78,55.25-15.44,10.87-4.58,22.1-9.32,32.78-12.07,45.16-11.62,87-14.11,124.39-7.38,31.45,5.66,60.69,21,89,35.79,18.25,9.57,37.12,19.46,56.3,26.57,21.5,8,41.17,11.54,60.15,10.93,21.24-.68,40.92-7.55,59.79-16.39v-.22c-18.88,8.85-38.56,15.73-59.8,16.41-19,.62-38.6-3-60.07-10.92-19.17-7.1-38-17-56.28-26.55-28.29-14.83-57.54-30.16-89-35.82-37.41-6.73-79.29-4.24-124.48,7.39-10.69,2.75-21.93,7.49-32.81,12.07-18,7.59-36.63,15.43-54.68,15.43h-.49c-13.12-.11-26.21-3.76-40-11.17-12.3-6.61-24-15.53-35.33-24.15-11-8.34-22.27-17-34.09-23.48-13.27-7.31-25.8-11.13-38.3-11.7-13.61-.62-26.85,2.28-41.65,9.13-13.05,6.05-25.26,14.19-38.19,22.81-24.21,16.14-49.25,32.83-80.13,34.6-19.09,1.09-39.53-1-62.51-6.27-20.49-4.73-41.05-11.56-60.93-18.17s-40.37-13.41-60.8-18.13c-22.92-5.3-43.3-7.35-62.3-6.25a69.41,69.41,0,0,0-44.18,18.38c-11.15,10.06-19.58,23-27.74,35.54-14.2,21.83-27.62,42.45-53.37,45-12.06,1.2-25.95-4.77-39.93-13.1v.23c12.77,7.6,25.47,13.23,36.78,13.23A30.17,30.17,0,0,0,42.57,380.28Z" transform="translate(-0.46 -1.52)"/><path d="M1199.7,372.35a158.41,158.41,0,0,1-30.43,8.5,163.54,163.54,0,0,1-43.54,1.48,187.84,187.84,0,0,1-39.92-8.57c-25.71-8.33-50.36-21.42-74.2-34.08-25.05-13.31-51-27.07-78.69-35.76-43.64-13.67-78.82,5.41-112.85,23.86-13.83,7.5-28.14,15.25-42.58,20.46-16.16,5.83-31,7.84-45.21,6.16-12.52-1.49-25.53-6.4-39.78-15-12.72-7.7-25.29-17.62-37.44-27.21-16.45-13-33.45-26.39-51.47-34.92a94.37,94.37,0,0,0-28.11-8.66,77.83,77.83,0,0,0-30.79,2c-25.27,6.7-43.61,22.57-61.34,37.91-11.53,10-23.46,20.3-37.19,28A102.67,102.67,0,0,1,397,350c-35.56.79-67.31-14.65-98-29.58-14.73-7.17-30-14.57-45.23-19.95-17.11-6-32.58-8.85-47.28-8.64-41.28.59-62.31,27.09-82.64,52.71-16.71,21.05-32.49,40.92-58.4,45.89A74,74,0,0,1,37,390a137,137,0,0,1-29.66-9.77c-1.58-.7-3.17-1.44-4.76-2.2v.23Q5,379.4,7.3,380.44A137.61,137.61,0,0,0,37,390.23a83.87,83.87,0,0,0,15.82,1.6,66.24,66.24,0,0,0,12.61-1.18c26-5,41.78-24.88,58.51-46,20.31-25.58,41.31-52,82.5-52.63,14.68-.21,30.12,2.61,47.2,8.63,15.27,5.37,30.49,12.78,45.22,19.94,30.73,14.94,62.51,30.39,98.11,29.6a102.76,102.76,0,0,0,49.28-13.49c13.76-7.73,25.69-18.06,37.23-28,17.72-15.34,36-31.19,61.26-37.87a77.48,77.48,0,0,1,30.72-2,93.91,93.91,0,0,1,28,8.64c18,8.52,35,21.93,51.43,34.9,12.16,9.59,24.74,19.52,37.47,27.22,14.27,8.63,27.3,13.55,39.86,15,14.29,1.7,29.11-.32,45.29-6.16,14.47-5.21,28.78-13,42.62-20.48,34-18.43,69.13-37.48,112.69-23.83,27.71,8.68,53.61,22.43,78.66,35.73,23.85,12.67,48.51,25.77,74.23,34.1a188.22,188.22,0,0,0,40,8.58,163.9,163.9,0,0,0,43.59-1.48,158.61,158.61,0,0,0,30.4-8.49Z" transform="translate(-0.46 -1.52)"/><path d="M1199.7,392.33a171.64,171.64,0,0,1-29.08,7.81c-32.86,5.54-66.84,1-99.71-3.41-6.22-.83-12.65-1.69-18.93-2.46-37.44-4.6-45.49-11.34-67-29.36-4.1-3.44-8.75-7.33-14.18-11.69a109.18,109.18,0,0,0-37.42-19.76c-12.3-3.73-25.58-5.57-40.59-5.62h-.68c-15.84,0-32.1,2-48.37,4.84a375.51,375.51,0,0,1,44.7-7.62c24.86-2.41,46.62-.44,66.53,6,23.54,7.65,45.47,18.59,66.68,29.17,22.74,11.34,44.22,22.05,67.47,29a174.91,174.91,0,0,0,36.08,7,154.51,154.51,0,0,0,39.31-1.73c11-1.87,22.78-6.35,35.19-12.17v-.22c-12.43,5.83-24.26,10.32-35.23,12.19a154,154,0,0,1-39.25,1.73,174.38,174.38,0,0,1-36-7c-23.23-7-44.71-17.69-67.44-29-21.22-10.58-43.15-21.52-66.71-29.18-19.93-6.49-41.72-8.47-66.6-6.05-16.28,1.58-32.79,4.89-49.07,8.6-10.61,1.94-21.21,4.18-31.68,6.39-16.39,3.47-31.87,6.74-47.15,8.89a149.6,149.6,0,0,1-54.37-1.91c-22.13-7.44-42.72-22.57-62.82-37.34-28.56-21-55.54-40.81-83.69-35.92-22,3.82-39.45,18.83-57.87,34.73-16.93,14.6-34.35,29.62-56.45,36.7A119.26,119.26,0,0,1,424,348.35c-34,2.15-66.72-6.64-98.4-15.14-14.68-3.94-29.63-7.95-44.8-10.9C265.05,317.5,249,313,232.63,310c-22.75-4.23-41-4.56-57.32-1-18.55,4-34.8,13.15-49.69,28-7.33,7.28-13,16.89-18.56,26.18-7.36,12.39-15,25.2-26.58,32.93-8.55,5.69-19,8.45-31.14,8.19C38.48,404,26.28,401.45,12,396.46c-3.11-1.09-6.25-2.28-9.41-3.54v.22c3.14,1.25,6.26,2.43,9.35,3.51,14.26,5,26.48,7.53,37.37,7.75,12.15.26,22.67-2.51,31.25-8.22,11.65-7.76,19.27-20.59,26.64-33,5.52-9.28,11.22-18.88,18.53-26.15,14.86-14.78,31.08-23.9,49.59-27.9,16.33-3.53,34.52-3.2,57.24,1A429.84,429.84,0,0,1,279,322a223.43,223.43,0,0,0-39.24-4.17A196.88,196.88,0,0,0,191,323.32a164.58,164.58,0,0,0-45.41,18.51c-12.07,7.25-22,17.88-31.58,28.17-11.58,12.42-23.55,25.25-39.18,31.77-18.3,7.62-42,6.23-72.17-4.25v.2c17.43,6,32.71,9.08,46,9.08A67.52,67.52,0,0,0,74.87,402c15.67-6.53,27.66-19.38,39.25-31.81,9.58-10.28,19.48-20.9,31.54-28.13A164.05,164.05,0,0,1,191,323.51a197,197,0,0,1,48.7-5.52,225.16,225.16,0,0,1,41,4.52c6.42,2,12.78,4,19.08,6,21,6.66,42.67,13.55,64.47,17.72,24.42,4.66,46.54,5.37,67.62,2.15a86.33,86.33,0,0,0,13.48-3.17c18.34-4.56,34.81-12.82,50.87-20.88,15.36-7.7,29.86-15,45.72-19.17a95.16,95.16,0,0,1,52,.22c21,5.85,38.84,13.72,56.11,21.32,17.1,7.53,33.27,14.65,50.94,19.14q2.55.65,5.08,1.2a85.16,85.16,0,0,0,27.43,4.73h.1c29.58,0,59.32-7.11,88.09-13.95,5.85-1.39,11.75-2.79,17.68-4.14,17.71-3.24,35.47-5.62,52.71-5.62h.68c15,0,28.25,1.89,40.53,5.61a109.34,109.34,0,0,1,37.36,19.72c5.42,4.36,10.07,8.26,14.17,11.69,21.55,18.05,29.61,24.81,67.11,29.41,6.27.77,12.7,1.63,18.92,2.46,32.88,4.4,66.89,8.95,99.78,3.4a172.29,172.29,0,0,0,29-7.78ZM431.88,348.16c-21.06,3.22-43.15,2.51-67.55-2.15-21.79-4.16-43.48-11.05-64.45-17.71-5.7-1.81-11.45-3.63-17.24-5.42,14.51,2.91,28.83,6.75,42.9,10.52,31.69,8.5,64.46,17.3,98.46,15.15a117.89,117.89,0,0,0,18.15-2.6A85.69,85.69,0,0,1,431.88,348.16Zm269.19-2.54c-17.66-4.48-33.81-11.59-50.91-19.12C632.89,318.89,615,311,594,305.16a97.24,97.24,0,0,0-26.28-3.73A99.85,99.85,0,0,0,541.93,305c-15.88,4.2-30.39,11.48-45.76,19.18s-30.87,15.49-48.11,20.16c20.88-7.41,37.59-21.82,53.85-35.84,18.4-15.88,35.78-30.87,57.77-34.68,28.07-4.88,55,14.92,83.54,35.88,19.6,14.4,39.65,29.14,61.16,36.78C703.28,346.17,702.18,345.91,701.07,345.62Zm120.61-8c-28.76,6.84-58.5,13.91-88,13.94h-.1A84.58,84.58,0,0,1,708,347.43a149.72,149.72,0,0,0,52.57,1.5c15.28-2.14,30.77-5.42,47.16-8.88,8.92-1.89,17.93-3.79,27-5.51Q828.15,336.06,821.68,337.61Z" transform="translate(-0.46 -1.52)"/><path d="M1199.7,406.85a268.92,268.92,0,0,1-35.92,9c-40.32,7-83.33,8.78-121.1,5.1-22.15-2.15-42.46-6.16-60.35-11.92-19.85-6.39-36.87-15-50.57-25.54-25.31-19.5-50.16-29.27-78.21-30.72-2.62-.14-5.24-.2-7.87-.2-23.08,0-46.68,5-73.56,10.68-8.77,1.86-17.84,3.78-27.29,5.61-35.94,6.94-68.62-1.2-100.21-9.08-28.31-7.06-57.58-14.36-88.56-10.39-19.38,2.49-36.21,7.12-52.49,11.6-30.23,8.32-58.79,16.17-97.19,7.83-16.35-3.56-32.49-8.28-48.18-13,19.17,5.54,38.78,9.95,58.79,10.27,26.36.42,51.95-7.25,76.69-14.67,30.92-9.27,62.89-18.85,96.91-12.93,19.19,3.34,35.64,7.51,50.15,11.19,37.58,9.53,67.26,17,118.62,5.23,40.91-9.42,79-11.52,116.31-6.43,35,4.77,70.38,15.75,111.29,34.57,41.22,19,81.17,28.39,122.65,28.39,29,0,58.69-4.62,90.09-13.79v-.21C1123.37,419.77,1057,415.09,987,382.91c-40.92-18.83-76.3-29.82-111.34-34.59-37.38-5.09-75.45-3-116.38,6.44-51.32,11.81-81,4.29-118.53-5.23-14.51-3.69-31-7.86-50.16-11.2-34.08-5.92-66.07,3.67-97,12.94-24.73,7.41-50.3,15.07-76.64,14.66-28.48-.45-56.17-9.22-82.94-17.71-29.72-9.41-60.44-19.15-92.08-17.34-37.38,2.14-69.4,23-100.37,43.2-16.24,10.58-33,21.52-50,29.28C72.51,412,55,415.82,38,414.92a116.55,116.55,0,0,1-35.33-7.84v.22a116.67,116.67,0,0,0,35.32,7.82c17.06.9,34.62-2.89,53.69-11.58,17-7.76,33.83-18.71,50.08-29.29,30.94-20.18,62.94-41,100.27-43.17,31.6-1.8,62.31,7.92,92,17.33,3.53,1.12,7.09,2.25,10.66,3.36-22.88-6.87-44.8-13.07-67.5-15.88A179.49,179.49,0,0,0,238.8,335a153.25,153.25,0,0,0-39.64,8.88c-23.39,8.56-43.33,24.19-62.62,39.29-14,11-28.56,22.38-44.12,30.72-17.36,9.31-34.31,13.83-51.83,13.83h-.18c-11.94,0-24.42-2.34-37.79-7v.21c13.36,4.69,25.84,7,37.79,7h.18c17.55,0,34.54-4.53,51.92-13.85,15.58-8.35,30.1-19.73,44.15-30.74,19.28-15.1,39.21-30.71,62.57-39.26a153.19,153.19,0,0,1,39.59-8.87,179.12,179.12,0,0,1,38.31.87c25.25,3.12,49.55,10.46,75.28,18.23,17.49,5.28,35.57,10.74,53.93,14.73,38.45,8.36,67,.5,97.28-7.83,16.27-4.47,33.1-9.1,52.47-11.59,30.94-4,60.19,3.32,88.48,10.38,31.62,7.89,64.31,16,100.3,9.08,9.45-1.82,18.52-3.74,27.3-5.6,29.93-6.34,55.77-11.81,81.37-10.48,28,1.45,52.82,11.2,78.1,30.68,13.72,10.57,30.75,19.17,50.63,25.57,17.9,5.76,38.22,9.78,60.39,11.93,37.79,3.68,80.82,1.86,121.15-5.11a267.66,267.66,0,0,0,35.89-9Z" transform="translate(-0.46 -1.52)"/><path d="M1199.7,416.31c-14.42,3.17-29,5.92-43.63,7.95-20,2.77-40.25,2.61-59.88,2.45-18.45-.14-37.52-.29-56.17,2-12.54,1.54-24.74,5.28-36.53,8.89-24.94,7.64-48.5,14.86-73.2,1.73-14.22-7.56-25-19.39-36.33-31.91-12.66-13.93-25.75-28.35-44.23-36.71a157.63,157.63,0,0,0-53-13.21c24.79-5.21,51.47-8.71,73.23-2.41,24.49,7.08,31.91,21.16,39.75,36.07,5.49,10.43,11.16,21.21,22.9,30.72,9.89,8,21.55,11.54,35.63,10.78,12.54-.68,25.81-4.61,38.63-8.42,9.53-2.83,19.39-5.75,28.85-7.31,20.32-3.34,41.14-4,61.27-4.58,21.88-.67,44.51-1.36,66.55-5.52,11-2.07,23.16-5.86,36.15-10.42v-.21c-13,4.56-25.23,8.36-36.19,10.43-22,4.16-44.64,4.85-66.51,5.52-20.15.61-41,1.24-61.3,4.59-9.48,1.55-19.34,4.48-28.88,7.31-12.81,3.8-26.06,7.73-38.58,8.41-14,.76-25.64-2.76-35.49-10.74-11.71-9.48-17.37-20.24-22.85-30.65C902,376.13,894.6,362,870,354.9c-22-6.36-49-2.74-74,2.56-15.57-1.19-30.55-.46-44.34.73-20.27,1.76-41.06,2.3-63.07,2.87-34.81.91-70.47,1.85-104,7.9-6.41.59-12.86,1.41-19.36,2.54-18.07,3.13-33.91,7.15-47.89,10.69-20.09,5.1-37.45,9.49-56,10.27-20.29.84-40.12-2.88-62.41-11.71-31.91-12.65-60.81-23.65-91.29-30.12-36.23-7.7-67.19-7-94.66,2.1-29.92,9.92-48.32,27.12-66.12,43.75-13,12.14-25.25,23.6-41.2,31.48-17.93,8.86-37.82,11.82-62.6,9.32A144.54,144.54,0,0,1,2.62,426.9v.21a144.39,144.39,0,0,0,40.46,10.37c24.81,2.5,44.74-.47,62.71-9.34,16-7.89,28.25-19.37,41.25-31.52,17.78-16.61,36.17-33.79,66-43.7,27.44-9.1,58.36-9.79,94.56-2.1,30.47,6.47,59.36,17.47,91.26,30.12,22.31,8.84,42.17,12.57,62.49,11.72,18.58-.78,35.95-5.18,56.05-10.27,14-3.55,29.81-7.56,47.87-10.69,5.73-1,11.41-1.76,17.06-2.32a251.75,251.75,0,0,0-37.15,9.77c-18.15,6.4-33.65,16.62-48.64,26.51-14.24,9.4-27.69,18.28-41.95,22.79-16,5-30.77,3.92-46.59-3.54-15-7.07-29-14.9-42.5-22.48-21.84-12.23-42.47-23.78-65.11-31.05-25.45-8.18-49.72-9.73-76.38-4.89-32.08,5.82-55.44,23-78,39.66-13.79,10.16-28,20.66-43.95,28.19A118.56,118.56,0,0,1,46.55,446a302.76,302.76,0,0,1-43.93-4.76v.2a302.63,302.63,0,0,0,43.92,4.76,118.64,118.64,0,0,0,55.6-11.69c15.92-7.54,30.19-18,44-28.21,22.58-16.62,45.92-33.81,78-39.62,26.62-4.84,50.86-3.28,76.27,4.88,22.63,7.26,43.25,18.81,65.08,31C379,410.18,393,418,408,425.09c15.87,7.48,30.72,8.61,46.73,3.55,14.29-4.52,27.75-13.4,42-22.81,15-9.88,30.47-20.1,48.6-26.49a254.55,254.55,0,0,1,39.37-10.18c25.35-2.32,50-.86,73.93.55,33.55,2,68.26,4,104.42-4.39,3.15-.73,6.36-1.5,9.76-2.31,7.4-1.77,15.24-3.65,23.28-5.35a157.6,157.6,0,0,1,53.6,13.25c18.44,8.34,31.51,22.74,44.16,36.66,11.38,12.53,22.14,24.37,36.38,31.94a61.22,61.22,0,0,0,29.47,7.3c14.5,0,29-4.43,43.89-9,11.78-3.61,24-7.35,36.5-8.89,18.63-2.29,37.7-2.14,56.14-2,19.64.15,39.94.31,59.91-2.46,14.64-2,29.19-4.78,43.6-7.95Zm-427-53.5c-3.4.81-6.61,1.58-9.77,2.32-36.13,8.41-70.82,6.37-104.36,4.38-14.86-.87-30-1.77-45.35-1.77-8.7,0-17.48.29-26.36,1,32.87-5.7,67.71-6.61,101.75-7.5,22-.57,42.8-1.11,63.08-2.87a274.72,274.72,0,0,1,43.62-.79C787.53,359.27,779.92,361.09,772.73,362.81Z" transform="translate(-0.46 -1.52)"/><path d="M68.93,460.27a119.25,119.25,0,0,0,28.21-9.17c17.53-8.12,32.58-19.46,48.51-31.47,19.61-14.79,39.9-30.07,65.31-38.93,30.64-10.68,64.29-8.82,105.9,5.84,17.94,6.32,34.18,19.51,49.89,32.26,15.37,12.48,29.89,24.27,45.22,29.29a46.89,46.89,0,0,0,19.93,2.07,68.78,68.78,0,0,0,19.68-5.39c13.06-5.54,25.78-14.22,39.25-23.42,17.33-11.83,35.25-24.07,53.87-28.91,29.82-7.75,64.37-13.32,102.69-16.57,31.35-2.65,65.36-3.83,104-3.59,35.08.21,64.2,1.55,92.79,16.33,14.27,7.37,26.52,18.93,38.36,30.11,13.41,12.65,27.28,25.73,44,32.65,29.19,12,51.71,4.44,77.77-4.36,6.57-2.21,13.36-4.51,20.54-6.58,24.33-7,49.8-9.65,74.42-12.19,18-1.84,36.5-3.75,54.56-7.35,11.38-2.27,27.35-7.79,45.86-14.36v-.21c-18.54,6.58-34.52,12.11-45.89,14.37-18.06,3.6-36.61,5.51-54.55,7.36-24.63,2.53-50.1,5.15-74.45,12.19-7.19,2.07-14,4.37-20.55,6.58-26,8.79-48.51,16.38-77.63,4.36-16.72-6.9-30.58-20-44-32.61-11.86-11.18-24.12-22.75-38.41-30.14-28.63-14.8-57.77-16.14-92.88-16.35-38.63-.23-72.65.94-104,3.59-38.34,3.25-72.9,8.83-102.73,16.58-18.65,4.85-36.59,17.09-53.93,28.93-13.46,9.2-26.18,17.88-39.22,23.4-14.77,6.26-27.31,7.31-39.47,3.33-15.29-5-29.8-16.8-45.15-29.26-15.73-12.77-32-26-49.95-32.3-41.66-14.67-75.35-16.53-106-5.84-25.44,8.87-45.73,24.16-65.36,39-15.93,12-31,23.34-48.47,31.45a119.38,119.38,0,0,1-28.17,9.16,120.39,120.39,0,0,1-33.19,1.51,115.4,115.4,0,0,1-33.08-8.13v.22a115.57,115.57,0,0,0,33.06,8.11A120.43,120.43,0,0,0,68.93,460.27Z" transform="translate(-0.46 -1.52)"/><path d="M1199.7,432.21c-15.62,4.11-31.45,7.92-47.39,11-18.92,3.6-38.13,5.64-56.71,7.62-27.91,3-56.77,6-84.59,14.46-6.88,2.08-13.17,4.25-19.25,6.34-13.82,4.77-25.75,8.89-38.39,9.79-13.78,1-27.16-2.09-42.11-9.67-18.66-9.47-30-25.86-41-41.72-8.77-12.7-17.85-25.83-30.6-35.16-11-8-23.06-12.67-37.94-14.55a141.6,141.6,0,0,0-17.76-1c-7.38,0-14.89.41-22.63.82-3,.17-6.18.34-9.28.48-11.53.52-23.23.88-34.55,1.22-28.58.87-58.13,1.76-86.66,5.47-32,4.16-59.41,11.5-83.92,22.45-18.36,8.21-33.75,17.43-47.33,25.57-19.3,11.56-36,21.54-54.57,24.9a78.61,78.61,0,0,1-30-.51c-11.32-2.3-23.34-6.88-36.74-14-36.16-19.27-68.49-31.27-98.85-36.71a195.55,195.55,0,0,0-51.84-2.62,164,164,0,0,0-51.72,13.27C164,424.83,153.3,430,143,435c-21,10.13-39.14,18.89-59.4,24.47-22.19,6.12-44.73,7.68-70.92,4.89-3.15-.33-6.51-.72-10-1.17v.21c3.51.44,6.87.83,10,1.16,26.22,2.79,48.77,1.23,71-4.89,20.28-5.6,38.43-14.35,59.44-24.49,10.33-5,21-10.13,32.9-15.37a164,164,0,0,1,51.66-13.27,195.63,195.63,0,0,1,51.79,2.63c30.33,5.43,62.65,17.43,98.79,36.68,13.42,7.15,25.45,11.74,36.79,14.05a78.62,78.62,0,0,0,30.11.5c18.64-3.36,35.32-13.35,54.63-24.92,13.58-8.13,29-17.35,47.31-25.55,24.49-10.95,51.92-18.29,83.86-22.44,28.52-3.71,58.07-4.6,86.65-5.47,11.32-.34,23-.7,34.55-1.22,3.1-.14,6.24-.31,9.28-.48,14-.75,27.25-1.47,40.36.19,14.84,1.88,26.87,6.49,37.84,14.52,12.72,9.3,21.79,22.42,30.56,35.11,11,15.87,22.32,32.29,41,41.78,13.18,6.68,25.14,9.86,37.24,9.86,1.66,0,3.31-.06,5-.17,12.66-.91,24.61-5,38.44-9.8,6.08-2.09,12.36-4.26,19.24-6.34,27.8-8.42,56.65-11.48,84.56-14.45,18.58-2,37.79-4,56.71-7.62,15.94-3,31.75-6.84,47.36-10.95Z" transform="translate(-0.46 -1.52)"/><path d="M1199.7,431.07c-6.59,1.16-13.16,2.34-19.67,3.5-10.21,1.83-20.77,3.72-31.2,5.54-29,5.06-59.4,15.79-91.61,27.14-45.9,16.19-93.37,32.94-135.88,31.61a80.07,80.07,0,0,1-27.47-5.38,73.67,73.67,0,0,1-20.79-12.64c-12.14-10.32-21.55-24.21-30.65-37.64-17.14-25.3-34.86-51.46-72.15-57.88-15.27-2.63-33.26-3.95-52.55-3.95a474.72,474.72,0,0,0-55.6,3.37c-41.3,4.93-78.4,14.62-104.48,27.29-17.92,8.71-34,21.78-49.49,34.43C494,458,479.27,470,463.43,478.29a102.77,102.77,0,0,1-25,9.45,88.41,88.41,0,0,1-28.34,1.78c-28.23-2.69-54.48-15-79.87-26.86-16.09-7.53-32.74-15.33-49.86-20.69-19.21-6-36.93-8.24-54.16-6.8-33,2.76-63.42,14.83-92.87,26.51C98.75,475.39,63,489.55,22,489.55H20.57c-6-.05-12-.28-17.95-.65v.2c6,.37,12,.6,18,.65H22c41,0,76.77-14.17,111.34-27.88,29.44-11.68,59.88-23.75,92.82-26.5,17.2-1.44,34.89.78,54.09,6.79,17.1,5.36,33.74,13.15,49.83,20.68,25.4,11.89,51.67,24.19,79.93,26.88a88.22,88.22,0,0,0,28.4-1.79,103,103,0,0,0,25.08-9.46c15.85-8.3,30.55-20.28,44.76-31.86,15.51-12.64,31.55-25.7,49.44-34.4,26.07-12.66,63.15-22.35,104.42-27.27,39.35-4.69,78.75-4.48,108.1.57,37.21,6.41,54.9,32.54,72,57.8,9.11,13.45,18.53,27.35,30.69,37.69a73.76,73.76,0,0,0,20.84,12.66,80.28,80.28,0,0,0,27.54,5.4c1.59.05,3.18.08,4.79.08,41.31,0,87-16.11,131.17-31.7,32.2-11.35,62.62-22.08,91.57-27.13,10.43-1.82,21-3.71,31.2-5.54l19.64-3.5Z" transform="translate(-0.46 -1.52)"/><path d="M88.45,468.2c19.55-6.77,37.36-16,56.22-25.7,19.55-10.09,39.77-20.53,62-27.94,60-20,114.38,8.34,167,35.71,9.58,5,19.49,10.14,29.13,14.83,4.12,2,7.88,3.88,11.19,5.53,26.8,13.4,32.38,16.19,56.88-1.18,11-7.82,19.14-16.16,27-24.24,13.44-13.83,26.13-26.89,51.66-35.74,28.87-10,62.36-18.13,96.84-23.47a624.81,624.81,0,0,1,99.44-7.48c18.61.17,33.88,2,48,5.72a139.6,139.6,0,0,1,44,20.25c12.93,8.86,23.17,22.45,33.08,35.59,12.66,16.79,24.61,32.65,41.78,39.84,11.43,4.78,24.14,5.65,38.84,2.66,12.95-2.62,25.67-7.8,38-12.8,4.85-2,9.43-3.84,14-5.54,31.8-11.84,63.27-17.59,96.59-23.67,7.58-1.38,15.42-2.82,23.22-4.32,14-2.7,32.24-8,53.31-14.13,7.41-2.16,15.12-4.4,23-6.64v-.21c-7.93,2.24-15.65,4.49-23.08,6.65-21.08,6.14-39.28,11.44-53.3,14.14-7.8,1.5-15.63,2.93-23.21,4.31-33.33,6.09-64.81,11.84-96.63,23.68-4.56,1.7-9.14,3.57-14,5.54-12.3,5-25,10.17-37.94,12.8-14.66,3-27.33,2.11-38.72-2.66-17.12-7.16-29.06-23-41.7-39.77C861.2,426.81,851,413.2,838,404.32A139.88,139.88,0,0,0,793.92,384c-14.19-3.73-29.47-5.55-48.1-5.72a625.27,625.27,0,0,0-99.47,7.48c-34.49,5.35-68,13.47-96.88,23.48-25.57,8.86-38.28,21.94-51.74,35.79-7.84,8.07-15.94,16.41-27,24.22-24.4,17.29-30,14.51-56.67,1.16-3.31-1.65-7.07-3.53-11.19-5.53-9.64-4.69-19.55-9.84-29.13-14.82-52.67-27.4-107.12-55.73-167.16-35.73-22.26,7.41-42.48,17.86-62.05,27.95-18.85,9.74-36.65,18.93-56.18,25.69-22.13,7.66-42.53,10.8-64.18,9.88a126,126,0,0,1-21.59-2.84v.2a125,125,0,0,0,21.58,2.84C45.88,479,66.3,475.87,88.45,468.2Z" transform="translate(-0.46 -1.52)"/><path d="M1199.7,448.56l-9.26,1.7c-17,3.12-34.64,6.35-52.07,9.23-44.69,7.38-83.28,13.76-124.49,32.32-8.6,3.87-17.08,8.31-25.29,12.61-11.36,5.94-23.1,12.09-35.13,16.7-13.47,5.15-26,7.81-38.16,8.12-56.65,1.45-70.6-26.7-86.76-59.3-5.76-11.62-11.66-23.52-19.77-34.81,6.34,6.78,12.21,13.95,18,21,23.15,28.24,45,54.91,90.27,50.65,43.63-4.1,89.72-20.14,134.3-35.66,33.79-11.76,68.72-23.93,102-30.63,13.32-2.68,28.08-6.61,43.7-10.77l2.62-.69v-.21l-2.67.71c-15.62,4.16-30.38,8.08-43.69,10.76C1120,447,1085.08,459.19,1051.28,471,1006.72,486.46,960.64,502.5,917,506.6c-45.14,4.25-67-22.38-90.09-50.58-6.13-7.48-12.35-15-19.1-22.18a119,119,0,0,0-12.37-14.33c-10.44-10.3-24-17.34-40.22-20.94a119.88,119.88,0,0,0-16-2.38q-6.63-1.31-13.77-2.2a269.12,269.12,0,0,0-51.63-1.09c-34.88,2.42-69.79,10.63-95.76,22.53-24.5,11.22-44.26,27.11-63.36,42.48C499,470.6,484.1,482.58,466.85,492a139.41,139.41,0,0,1-40.49,15c-26.5-.24-51.84-4.59-76.45-10.2-11.8-5.69-23.2-12.73-34.29-19.58C290.9,462,265.34,446.18,233.44,443.4c-15.68-1.37-32,.56-49.88,5.9-16,4.76-31.77,11.76-47.05,18.54-30,13.28-60.95,27-96,25.54a310.1,310.1,0,0,1-37.87-4.32v.2a310.17,310.17,0,0,0,37.86,4.32c35.12,1.47,66.13-12.27,96.11-25.56,15.28-6.77,31.08-13.77,47-18.53,17.86-5.33,34.15-7.26,49.8-5.89,31.86,2.77,57.4,18.55,82.1,33.81,10.85,6.7,22,13.58,33.52,19.21-11.71-2.68-23.26-5.65-34.69-8.58-33.86-8.69-68.88-17.68-105.62-18.7-29.94-.83-55.33,7.49-82.21,16.29-9.65,3.16-19.63,6.43-29.92,9.28-28.27,7.82-52.63,6.31-78.43,4.7-5.1-.32-10.27-.64-15.55-.89v.2c5.27.25,10.44.57,15.53.89,25.82,1.61,50.2,3.12,78.5-4.71,10.29-2.85,20.28-6.12,29.93-9.28,26.86-8.8,52.24-17.11,82.15-16.28,36.71,1,71.72,10,105.57,18.69,11.71,3,23.54,6,35.54,8.78q4.16,2,8.37,3.77c16.59,6.88,32.43,9.8,48.42,8.9a141.59,141.59,0,0,0,19.74-2.46q3.69,0,7.41,0c31.28-.65,58.05-20,86.39-40.54,23.18-16.78,47.15-34.13,75.48-42.73,4-1.21,8.16-2.5,12.58-3.87,28.35-8.81,63.64-19.76,97.86-23.17a181.57,181.57,0,0,1,32.93-.51A141.71,141.71,0,0,1,770.33,406c14.94,6.8,26.81,16.82,37.36,28,8.58,11.66,14.7,24,20.67,36.06,8,16.18,15.6,31.46,28.23,42.44,13.32,11.57,30.72,17,54.51,17,1.38,0,2.78,0,4.21-.06,12.23-.31,24.73-3,38.22-8.14,12-4.6,23.79-10.76,35.16-16.71,8.2-4.29,16.68-8.73,25.27-12.6,41.19-18.55,79.77-24.92,124.44-32.3,17.44-2.88,35-6.11,52.08-9.24l9.22-1.68ZM406.62,509.48c-16,.89-31.77-2-48.33-8.89q-3.81-1.57-7.57-3.38c24,5.45,48.8,9.67,74.66,10A142.48,142.48,0,0,1,406.62,509.48ZM706.07,396.67c-34.24,3.41-69.54,14.37-97.9,23.17-4.42,1.38-8.6,2.67-12.57,3.88-28.37,8.6-52.35,26-75.55,42.76-28.31,20.5-55,39.86-86.27,40.5q-3.24.06-6.45,0A140.19,140.19,0,0,0,467,492.21c17.26-9.46,32.17-21.45,47.95-34.15,19.09-15.36,38.83-31.24,63.31-42.45,26-11.89,60.83-20.09,95.69-22.51,23-1.59,44.55-.56,63.35,2.93A184.55,184.55,0,0,0,706.07,396.67Zm64.34,9.17a139.12,139.12,0,0,0-29.29-9.29,120.61,120.61,0,0,1,14.08,2.21c16.21,3.59,29.71,10.62,40.13,20.89a118.33,118.33,0,0,1,11.37,13C796.42,422,784.85,412.41,770.41,405.84Z" transform="translate(-0.46 -1.52)"/><path d="M133.35,481c8.85-3.86,16.42-8,23.75-12.05,9.88-5.43,19.22-10.56,29.41-13.47,11.28-3.23,22.58-3.46,35.58-.75A80.31,80.31,0,0,1,252.31,468c8.42,5.92,15.78,13.14,22.9,20.11,9.92,9.72,20.17,19.78,33.81,27,11,5.85,23.68,9.33,38.72,10.64,13.42,1.18,27.48.56,41.07,0,8.76-.38,17.82-.78,26.65-.7,5,0,10.3.36,15.9.69,19.57,1.17,41.74,2.49,56.76-8.47,11.28-8.24,18.13-21.39,25.38-35.31,8.3-15.92,16.88-32.39,32.93-43.22,12.3-8.3,27.6-15.53,45.45-21.5a297.89,297.89,0,0,1,55.48-12.56,273.09,273.09,0,0,1,56.82-1.68c19,1.54,35.67,5.28,49.5,11.14,27.9,11.82,43.73,33.88,59,55.21,10.16,14.16,19.76,27.54,32.63,38.21a85.1,85.1,0,0,0,22,13.39,94.67,94.67,0,0,0,29,6.76q5.65.45,11.35.45c44.83,0,92.49-20.47,138.69-40.32,25.19-10.82,49-21,71.65-27.72l10.26-3c21.36-6.34,45.8-13.59,71.43-19.56v-.21c-25.66,6-50.11,13.23-71.49,19.58l-10.26,3c-22.68,6.68-46.48,16.9-71.67,27.73-50.1,21.52-101.91,43.78-149.94,39.85a94.34,94.34,0,0,1-28.92-6.74,85.15,85.15,0,0,1-21.95-13.37c-12.85-10.65-22.44-24-32.59-38.17-15.33-21.35-31.17-43.44-59.13-55.28-13.84-5.86-30.51-9.61-49.55-11.15a273.57,273.57,0,0,0-56.87,1.68A298.21,298.21,0,0,0,591.82,417c-17.87,6-33.18,13.22-45.5,21.53-16.09,10.85-24.69,27.34-33,43.29-7.24,13.9-14.08,27-25.32,35.23-15,10.93-37.1,9.61-56.63,8.44-5.6-.33-10.88-.65-15.91-.69-8.83-.08-17.89.32-26.65.7-13.59.6-27.64,1.22-41.05,0-15-1.31-27.66-4.78-38.65-10.62-13.61-7.23-23.85-17.27-33.76-27-7.12-7-14.49-14.21-22.93-20.13a80.29,80.29,0,0,0-30.29-13.25c-13-2.72-24.37-2.49-35.68.74-10.21,2.92-19.56,8.06-29.45,13.5-7.32,4-14.89,8.18-23.73,12-28.66,12.53-64,14.91-97.76,16.28-9.45.39-20.77,1.56-32.89,2.93v.2c12.12-1.37,23.45-2.54,32.9-2.93C69.29,495.94,104.66,493.56,133.35,481Z" transform="translate(-0.46 -1.52)"/><path d="M1199.7,462.36c-26.9,5.31-55.36,12.1-86,20.52-21.85,6-44.21,14.71-67.89,23.94-32.22,12.56-65.55,25.54-98.7,31.75-17.91,3.36-34.1,4.45-49.51,3.36a139.46,139.46,0,0,1-48.53-12.13C821.93,517.51,809.74,495,798,473.2c-6.41-11.86-13-24.12-22-34.29a75.27,75.27,0,0,0-36.55-23.24c-30.26-8.83-72.4-9.19-112.72-.94a241.68,241.68,0,0,0-56.64,18.58c-18.07,8.74-32.46,19.21-42.77,31.14C520,473,515.39,483.33,511,493.36c-6.06,13.76-11.78,26.76-24,34.49-12.43,7.85-32.93,7.86-52.75,7.88-13.52,0-26.29,0-36,2.45a266.05,266.05,0,0,0-27.45,8.88c-20.25,7.41-37.73,13.81-62.29,7.91-16.67-4-31.24-14-45.33-23.6-17.33-11.85-35.25-24.1-57.8-26.25-6.69-.63-13.41-.91-20.15-.91-25.88,0-52,4.13-77.46,8.15C74.91,517.54,41,522.9,6.93,519.81c-1.38-.13-2.83-.19-4.31-.22v.2c1.47,0,2.91.09,4.29.22,34.11,3.09,68-2.27,100.8-7.45,32.06-5.07,65.22-10.31,97.56-7.24,22.5,2.14,40.4,14.38,57.7,26.22,14.11,9.64,28.7,19.62,45.4,23.63a80.33,80.33,0,0,0,18.87,2.31c15.57,0,28.83-4.85,43.54-10.23a264.06,264.06,0,0,1,27.43-8.87c9.72-2.43,22.48-2.44,36-2.45,19.85,0,40.38,0,52.85-7.91,12.31-7.77,18-20.79,24.11-34.58,4.41-10,9-20.37,16.31-28.86,10.29-11.9,24.66-22.36,42.71-31.08,16.65-8.06,35.7-14.31,56.59-18.58,40.29-8.23,82.39-7.88,112.63.94a75.06,75.06,0,0,1,36.45,23.19c8.91,10.15,15.53,22.4,21.94,34.25,11.79,21.81,24,44.37,51.18,56.68a139.58,139.58,0,0,0,48.59,12.15c15.43,1.09,31.64,0,49.56-3.36,33.18-6.21,66.51-19.2,98.74-31.76,23.67-9.23,46-17.94,67.87-23.94,30.64-8.41,59.08-15.19,86-20.51Z" transform="translate(-0.46 -1.52)"/><path d="M1199.7,473.67a708.81,708.81,0,0,0-81.73,19c-25.44,7.5-51.17,19.25-76.06,30.61-23.26,10.62-47.32,21.6-71.51,29.35-27.17,8.7-51.46,12.25-74.26,10.85-59.7-3.67-77.89-30.85-100.91-65.25-8.94-13.36-18.18-27.17-30.85-41.36-11.12-12.45-26-21.63-44.27-27.26-13.92-4.3-29.46-6.46-46.31-6.46q-4.69,0-9.51.22a234.39,234.39,0,0,0-48.44,7.58,273.29,273.29,0,0,1,29-7.81c22-4.59,42.57-6,61.23-4.08,20.67,2.09,38.17,8.14,52,18,20.88,14.87,33.14,33.22,45,51,9.85,14.73,19.15,28.65,32.67,39.49,15.2,12.18,33.49,18.65,57.57,20.37q6.33.45,12.65.45c52.29,0,103.66-22.26,153.46-43.84,26.33-11.4,51.19-22.18,76.22-29.91l1.4-.44c16.1-5,38.17-11.79,62.6-17.91V456c-24.46,6.12-46.55,12.94-62.65,17.92l-1.4.44c-25.05,7.74-49.92,18.51-76.25,29.92-53.79,23.3-109.41,47.4-166,43.37-24-1.71-42.29-8.17-57.45-20.33-13.5-10.82-22.79-24.72-32.63-39.45-11.87-17.76-24.14-36.12-45-51-13.88-9.88-31.41-15.95-52.11-18-18.68-1.88-39.3-.51-61.29,4.09a273.22,273.22,0,0,0-32.35,8.91c-1.84.51-3.66,1-5.48,1.6-18.16,5.55-35,13.06-48.61,21.73a69.89,69.89,0,0,0-13.7,11.55c-2.2,1.68-4.32,3.39-6.33,5.12-10.83,9.27-18.44,20.44-25.8,31.24-10.86,15.93-21.11,31-40.26,38-2,.74-4.26,1.48-6.63,2.21-4.52.44-9.14.66-13.84.88-10.06.47-20.47,1-30.88,3.79-11.78,3.21-21.29,6.66-30.49,10l-4,1.43c-10.57,1.65-20.35,3.09-28.34,4.26l-2.19.32c-44.73,6.56-59.53-12.6-76.67-34.78-11-14.28-23.52-30.46-46-41a85.27,85.27,0,0,0-27.5-7.65,110.81,110.81,0,0,0-27.86.75c-18.65,2.68-37.73,9.18-56.18,15.46C100.76,503.87,79,511.28,58,512.9c-14.06,1.08-27.24,1.39-40,1.69-5.17.12-10.28.24-15.38.42v.2c5.1-.17,10.21-.3,15.38-.42,12.75-.3,25.94-.61,40-1.69,21-1.62,42.8-9,63.87-16.22,18.44-6.28,37.51-12.78,56.15-15.45a110.87,110.87,0,0,1,27.81-.75,85,85,0,0,1,27.44,7.64c22.39,10.5,34.87,26.66,45.89,40.92,17.17,22.23,32,41.44,76.84,34.86l2.2-.32c7.73-1.14,17.14-2.51,27.31-4.1-19.23,6.89-35.87,11.93-64.56,9.54-23.2-1.93-46.6-6.93-69.23-11.78-12.39-2.65-25.21-5.39-37.79-7.58-69-12-141.07-16.14-211.32-19.61v.2c70.24,3.47,142.3,7.6,211.29,19.6,12.57,2.19,25.39,4.94,37.78,7.59,22.64,4.84,46,9.85,69.26,11.78,4.93.41,9.51.6,13.81.6,21.14,0,35.46-4.62,51.81-10.5,26.77-4.19,58.61-9.79,79.16-16.09,10.86-1.07,21.19-3.44,30.75-10.27,11.47-8.2,19.08-21.33,27.14-35.24,6.28-10.81,12.69-21.88,21.23-31.08,18-13.77,42-26,67.52-34.77,53.57-15,118-13.09,151.86,24.89,12.66,14.18,21.9,28,30.83,41.34,23.06,34.45,41.27,61.66,101.06,65.34,22.83,1.4,47.14-2.15,74.34-10.86C994.67,545,1018.73,534,1042,523.42c24.88-11.36,50.61-23.1,76-30.6a709.39,709.39,0,0,1,81.67-18.95ZM387.56,559.16l3-1.08c9.19-3.33,18.7-6.78,30.48-10,10.38-2.83,20.78-3.32,30.83-3.79,4.36-.21,8.66-.41,12.87-.79C444.44,549.62,413.71,555.05,387.56,559.16Zm135.89-61.34c-8.05,13.89-15.66,27-27.08,35.17-9.24,6.6-19.2,9-29.67,10.13q3-.95,5.69-1.91c19.21-7,29.48-22.08,40.35-38,7.36-10.79,15-21.95,25.77-31.2q2.6-2.24,5.42-4.42C535.76,476.59,529.54,487.33,523.45,497.82ZM545.68,466a68.77,68.77,0,0,1,12.84-10.64c14.06-8.94,31.47-16.64,50.37-22.24C585.05,441.57,562.78,453.09,545.68,466Z" transform="translate(-0.46 -1.52)"/><path d="M1199.7,476.37a271.88,271.88,0,0,0-27.34,5.18c-39.17,9.53-69.43,32.91-98.69,55.53-13.51,10.45-27.49,21.25-42,30.31-16.19,10.14-31.44,17.07-46.62,21.19-25.9,7-62.36,6.67-100-1s-71.55-21.68-92.65-38.4c-19.27-15.26-30.16-33.42-40.7-51-8.92-14.88-17.35-28.93-30.1-39.55-14.29-11.89-32.09-17.88-56-18.83a135.31,135.31,0,0,0-49.22,6.76A150.73,150.73,0,0,0,575.6,468c-25,18-46.58,43-67.46,67.16q-3.25,3.76-6.52,7.52c-26.77,30.82-64,47.66-113.94,51.47-43.32,3.32-88.82-3.53-131.71-10.84-11.08-1.88-22.41-3.86-33.37-5.77-62.89-11-127.5-22.24-191.5-25.19,19.84-1.49,40-4.52,59.59-7.47,23.6-3.56,48-7.23,71.78-8.19,26.66-1.09,49.67,1.43,70.34,7.7,12.7,3.85,24.75,7.92,36.41,11.85,52.89,17.84,98.57,33.25,162.09,13.56a121.37,121.37,0,0,0,48.86-29.12c12.93-12.38,23.48-27,33.68-41,8.52-11.77,17.33-23.94,27.41-34.64,11.29-12,23.06-20.85,36-27.12,28-13.58,64-15.27,101.3-4.76a203.11,203.11,0,0,1,48.28,20.71c14.76,8.79,27.77,19.3,37.63,30.38C787.4,510,812.78,536,843,552.09s62.87,21.29,103.13,16.63c22.16-2.56,46.76-9.38,75.19-20.85,25.4-10.25,51.63-23.26,77-35.83,33.24-16.48,67.27-33.35,101.37-45.14v-.21c-34.13,11.79-68.19,28.67-101.46,45.17-25.36,12.57-51.59,25.58-77,35.82-28.42,11.47-53,18.28-75.15,20.85-40.21,4.65-72.94-.63-103-16.61s-55.58-42.11-78.5-67.88c-9.87-11.09-22.9-21.61-37.68-30.41a203,203,0,0,0-48.32-20.73c-37.39-10.52-73.42-8.83-101.45,4.77-12.95,6.28-24.74,15.17-36,27.16-10.09,10.71-18.9,22.89-27.42,34.66-10.2,14.09-20.74,28.66-33.66,41a121.11,121.11,0,0,1-48.78,29.08c-63.46,19.67-109.11,4.27-162-13.56-11.66-3.93-23.71-8-36.41-11.85-20.69-6.27-43.73-8.8-70.41-7.71-23.79,1-48.2,4.64-71.8,8.19-20.15,3-40.89,6.15-61.26,7.59q-13.41-.59-26.78-.64v.18q12.46.06,25,.58-3.39.23-6.77.38a167,167,0,0,0-18.2,1.94v.21A164.82,164.82,0,0,1,20.83,553q4.28-.19,8.57-.5c64.53,2.84,129.74,14.21,193.17,25.27,11,1.91,22.29,3.88,33.37,5.77,35.26,6,72.28,11.7,108.41,11.7,7.83,0,15.62-.27,23.35-.86,23.62-1.8,43.94-6.41,62.12-14.08a140.5,140.5,0,0,0,51.95-37.46q3.27-3.75,6.52-7.52c20.87-24.13,42.45-49.09,67.42-67.13a150.49,150.49,0,0,1,40.73-21.37A135.18,135.18,0,0,1,665.59,440c23.88,1,41.64,6.92,55.89,18.78,12.73,10.6,21.15,24.64,30.06,39.5,10.54,17.58,21.45,35.75,40.75,51,21.12,16.73,54.92,30.74,92.73,38.44s74.19,8,100.13,1c15.2-4.13,30.46-11.07,46.67-21.22,14.48-9.06,28.46-19.87,42-30.32,29.25-22.61,59.49-46,98.62-55.5a274.26,274.26,0,0,1,27.29-5.17Z" transform="translate(-0.46 -1.52)"/><path d="M100.91,564.43c47.38.29,90.73,4.78,122.07,12.67l8.24,2.08c39.37,9.94,80.08,20.23,121,22.52,46.75,2.61,85.33-6.09,117.94-26.6,24.67-15.52,41.69-38.29,58.15-60.31,27.15-36.33,52.8-70.64,108.84-67.43,23,1.31,41.37,7.16,57.94,18.41,14.81,10.05,26.36,23.17,38.59,37.07,12.07,13.73,24.55,27.92,41.39,40.65a216.22,216.22,0,0,0,48.43,27.3,274.71,274.71,0,0,0,54.65,15.84,322.87,322.87,0,0,0,112.64.46c37.12-6.49,79.93-30.2,125.26-55.29,27.55-15.26,55.65-30.81,83.63-43.17v-.21c-28,12.36-56.15,27.93-83.73,43.2-45.31,25.09-88.11,48.78-125.19,55.27a322.47,322.47,0,0,1-112.57-.46,274.59,274.59,0,0,1-54.62-15.82,216.41,216.41,0,0,1-48.38-27.28c-16.82-12.72-29.3-26.9-41.36-40.62-12.24-13.91-23.8-27-38.62-37.1-16.61-11.28-35.06-17.14-58.05-18.45-56.15-3.21-81.83,31.14-109,67.51-16.45,22-33.46,44.76-58.1,60.26C437.5,595.42,399,604.11,352.25,601.5c-40.92-2.29-81.62-12.57-121-22.52L223,576.9c-31.35-7.88-74.71-12.38-122.11-12.67A736.21,736.21,0,0,0,2.62,570v.2C32.05,566.28,66.58,564.23,100.91,564.43Z" transform="translate(-0.46 -1.52)"/><path d="M1199.7,498.67a265.86,265.86,0,0,0-27.47,7.75c-30.88,10.54-55.64,30.43-79.59,49.66-13.74,11-28,22.43-43,31.8-16.88,10.48-33.17,17.29-49.8,20.81a223.26,223.26,0,0,1-51.65,4.41,312.24,312.24,0,0,1-53.59-6.22A398.88,398.88,0,0,1,794.39,572c-23-11.64-38.71-28.4-53.92-44.6-10.93-11.64-21.25-22.63-34-31.82A108.7,108.7,0,0,0,659.12,476a136,136,0,0,0-22.24-2c-16.24,0-30.49,3.53-43.8,10.72-17,9.21-30.52,23.33-44.8,38.29-15.95,16.71-32.45,34-55.93,47-50.44,28-95.05,40.83-147.1,40.83a395.89,395.89,0,0,1-58.09-4.64c-16.64-2.47-33.62-5.14-50-7.72-76-12-154.55-24.32-232.12-21.58-.78,0-1.58.08-2.38.14v.2c.8-.06,1.6-.11,2.38-.14,77.55-2.74,156.11,9.62,232.09,21.58,16.42,2.58,33.4,5.25,50,7.72,79.58,11.78,137.14,1.63,205.32-36.21,23.5-13.05,40-30.34,56-47.05,14.27-14.95,27.74-29.06,44.74-38.25,19-10.28,40-13.06,65.92-8.74a108.4,108.4,0,0,1,47.25,19.56c12.75,9.18,23.06,20.17,34,31.8,15.23,16.21,31,33,54,44.64a398.89,398.89,0,0,0,100.24,34.93,312.68,312.68,0,0,0,53.63,6.22q3.2.08,6.36.08a219.61,219.61,0,0,0,45.33-4.49c16.66-3.53,33-10.35,49.87-20.85,15.08-9.36,29.29-20.77,43-31.8,23.94-19.22,48.69-39.1,79.54-49.63a261.35,261.35,0,0,1,27.4-7.73Z" transform="translate(-0.46 -1.52)"/><path d="M1199.7,519.6a161.82,161.82,0,0,0-21,11c-6.14,3.8-12.28,7.65-18.22,11.36-29.11,18.23-56.6,35.45-85.94,49.69-33,16-63.34,25.83-95.5,30.9a318.17,318.17,0,0,1-57,3.84,314,314,0,0,1-54.67-6.22c-34.21-7-68.49-19.54-104.81-38.51-6.94-3.62-13.88-7.38-20.59-11-21.83-11.84-42.46-23-64.65-30.77a176.12,176.12,0,0,0-34.35-8.48,148.19,148.19,0,0,0-37.29-.48,111.27,111.27,0,0,0-47.19,16.37l-1.63,1c12.16-10,24.1-19.28,37.3-26.36A104.86,104.86,0,0,1,619.75,512a93.11,93.11,0,0,1,29.36-2.15c16.55,1.35,33.3,6.65,51.2,16.19,16,8.52,31.42,19.6,46.35,30.3,20.7,14.83,42.1,30.17,65.52,39.25a336.81,336.81,0,0,0,103.65,22,366.34,366.34,0,0,0,105.59-9.7c30.55-7.33,68-29.34,107.64-52.65,23-13.52,46.79-27.5,70.64-39.48v-.22c-23.89,12-47.7,26-70.74,39.53-39.63,23.3-77.06,45.3-107.59,52.63a366.27,366.27,0,0,1-105.53,9.69,337.06,337.06,0,0,1-103.59-22c-23.4-9.07-44.79-24.4-65.47-39.23-14.94-10.71-30.39-21.79-46.38-30.31-17.92-9.56-34.69-14.87-51.27-16.22a92.88,92.88,0,0,0-29.42,2.16A105.22,105.22,0,0,0,594,521.79c-13.67,7.33-26,17-38.58,27.42-12.09,7.81-22.66,17.13-33.81,26.95l-1.73,1.52c-10.33,7.38-21.25,13.94-33.2,18.68-36.38,14.45-74.26,22.23-115.8,23.8-34.27,1.29-70.84-1.44-118.57-8.85C158.5,596.75,79.75,589.63,4.5,588.9c-.62,0-1.25,0-1.88,0v.19c.63,0,1.26,0,1.88,0,75.24.73,154,7.85,247.8,22.41,47.75,7.41,84.33,10.14,118.61,8.85,41.56-1.57,79.46-9.36,115.87-23.81a155.19,155.19,0,0,0,31.7-17.61c-14.7,12.92-30.12,26-49.65,35.17C411.62,641,347,631.62,284.52,622.5c-17-2.48-33.13-4.83-49.19-6.5-23.51-2.43-48-5.31-71.59-8.1-53.36-6.29-108.33-12.76-161.12-15.25v.2c52.78,2.49,107.74,9,161.09,15.25,23.64,2.79,48.08,5.67,71.6,8.1,16.06,1.67,32.15,4,49.19,6.5C316.19,627.32,348.43,632,380,632c30.68,0,60.71-4.45,88.94-17.74,20.18-9.51,36-23.11,51.11-36.45,9.94-7.09,19.33-14.94,28.57-22.67q3.49-2.92,7-5.79c1-.64,2-1.27,3-1.89a111,111,0,0,1,47.1-16.34,148.29,148.29,0,0,1,37.24.48,176,176,0,0,1,34.32,8.47c22.17,7.75,42.79,18.92,64.62,30.75,6.71,3.64,13.65,7.4,20.59,11,36.33,19,70.63,31.57,104.86,38.53a315.38,315.38,0,0,0,54.7,6.22,318.78,318.78,0,0,0,57.1-3.84c32.17-5.07,62.54-14.9,95.55-30.92,29.34-14.25,56.85-31.47,86-49.7,5.94-3.71,12.08-7.56,18.21-11.36a162.19,162.19,0,0,1,20.9-11ZM548.47,555c-8.72,7.29-17.58,14.7-26.91,21.47l.21-.18c10.68-9.41,20.83-18.36,32.3-26C552.21,551.89,550.35,553.45,548.47,555Z" transform="translate(-0.46 -1.52)"/><path d="M1199.7,541.38l-5.64,2.82c1.85-1.19,3.73-2.37,5.64-3.56v-.24q-3.75,2.33-7.36,4.67c-6.68,3.38-13.24,6.76-19.74,10.1-44.12,22.72-85.79,44.18-139.65,53.83-74,13.27-154.54,12.18-239.29-3.24-21.4-3.89-43.74-11.42-65.34-18.7-32.9-11.1-66.93-22.58-99.69-22.15-16,.2-32.92,3.36-51.83,9.64C559.92,580.16,543,587.71,526.7,595c-18.33,8.19-37.12,16.59-56.42,22.52-60.77,8.16-123.06,10.54-183.49,12.85-9.48.36-19.28.73-28.9,1.12q-5.67.24-11.39.45c-9-.54-18.36-1.17-28.09-1.91-25.5-1.92-52.18-5.86-78-9.67-45.64-6.75-92.66-13.69-137.81-10.5v.2c45.13-3.19,92.15,3.75,137.78,10.5,25.8,3.81,52.49,7.75,78,9.67q13.52,1,26.09,1.79c-12.17.47-24.38.91-36.3,1.35-67.61,2.45-137.4,5-205.56,12.4v.2c68.16-7.4,138-10,205.57-12.4,12.57-.46,25.47-.93,38.3-1.43,32.91,2,61.4,2.69,88.1,2.22,42.58-.75,80.38-4.51,115.54-11.49a207.39,207.39,0,0,0,20.19-5.15q9.33-1.26,18.59-2.7c20.22-3.14,40.66-8.7,60.43-14.08,31.58-8.59,64.23-17.47,97-16.84,38.4.75,76,13.32,112.43,25.49,22,7.36,44.82,15,67.39,19.81a511.63,511.63,0,0,0,102.7,10.94,532.1,532.1,0,0,0,103-9,231.7,231.7,0,0,0,68.51-24.15c19.51-10.48,36.62-22.86,54.74-36,11.84-8.56,24-17.33,37.32-26l7.26-3.64Zm-749.61,81.3c-35.15,7-72.93,10.74-115.5,11.49-26.15.45-54-.21-86.06-2.1l9.37-.37c9.61-.39,19.42-.76,28.9-1.12,60-2.3,121.9-4.66,182.3-12.69C462.82,619.78,456.48,621.41,450.09,622.68ZM1155,571.05c-18.11,13.1-35.22,25.48-54.72,36a231.3,231.3,0,0,1-68.45,24.13,531.69,531.69,0,0,1-103,9,511.31,511.31,0,0,1-102.66-10.94c-22.56-4.82-45.34-12.44-67.37-19.8-36.41-12.17-74.05-24.75-112.49-25.5-1.11,0-2.22,0-3.34,0-31.67,0-63.19,8.57-93.7,16.88-19.76,5.37-40.2,10.93-60.41,14.08q-8.67,1.35-17.4,2.53c18.9-5.91,37.33-14.14,55.3-22.18,16.33-7.29,33.22-14.84,50.08-20.45,18.89-6.28,35.82-9.43,51.77-9.63h1.75c32.18,0,65.57,11.25,97.88,22.15,21.61,7.28,44,14.81,65.36,18.71,84.78,15.42,165.31,16.51,239.37,3.24,53.88-9.66,95.57-31.12,139.7-53.85,6-3.07,12-6.16,18.08-9.26C1178,554.4,1166.38,562.82,1155,571.05Z" transform="translate(-0.46 -1.52)"/><path d="M135.08,641.61c43,3.49,87.55,7.1,131.35,6.54,76-1,142.55-6.93,203.37-18.26,19.88-3.7,39.45-10.19,58.37-16.46,21.55-7.14,43.83-14.52,66.51-17.75,41-5.83,84,5.47,125.66,16.41,24.46,6.42,49.75,13.06,74,16,83.55,10.06,171.48,8.42,261.35-4.89,58.35-8.64,100-26.07,144-46.9v-.22c-18.8,8.89-37.23,17.21-56.48,24.39A419.16,419.16,0,0,1,1055.65,623c-89.85,13.3-177.76,14.95-261.29,4.89-24.23-2.92-49.52-9.56-74-16-41.65-10.93-84.72-22.24-125.74-16.41-22.7,3.23-45,10.62-66.54,17.76-18.92,6.27-38.48,12.75-58.34,16.45C409,641,342.44,647,266.43,648c-43.8.56-88.3-3.05-131.33-6.54S47.6,634.32,4,634.9l-1.38,0v.2l1.38,0C47.6,634.52,92.07,638.12,135.08,641.61Z" transform="translate(-0.46 -1.52)"/><path d="M1199.7,582.05c-26.6,9.73-53.08,21.85-79,33.72-37.53,17.18-76.33,34.94-114.42,44.93a261,261,0,0,1-59.66,8.6,292.84,292.84,0,0,1-55.88-4c-36.32-5.93-71.8-17.72-106.11-29.13-48.46-16.12-98.57-32.78-153.9-34.38-33.46-1-68.48,9.82-102.35,20.26-23,7.07-46.68,14.39-69.48,17.86-78.23,11.9-159.38,14.3-237.86,16.63l-7.09.21c-27.06.8-54.55,1.09-81.14,1.37-42.71.44-86.56.91-130.16,3.53v.2c43.6-2.62,87.45-3.09,130.16-3.53,26.59-.28,54.08-.57,81.14-1.37l7.09-.21c78.49-2.33,159.65-4.73,237.89-16.64,22.81-3.47,46.55-10.78,69.51-17.86,33.85-10.43,68.86-21.22,102.29-20.25,55.3,1.6,105.39,18.26,153.84,34.37,34.32,11.41,69.8,23.21,106.13,29.13a292.57,292.57,0,0,0,55.93,4,261.37,261.37,0,0,0,59.7-8.6c38.1-10,76.92-27.77,114.45-44.94,25.93-11.87,52.38-24,79-33.7Z" transform="translate(-0.46 -1.52)"/><path d="M1199.7,613q-6.63,2.57-13.67,5.51c-63.6,26.61-136.88,48.09-211.91,62.12a393.3,393.3,0,0,1-87.94,6.62,375,375,0,0,1-87.1-14c-20.91-5.92-42.29-15-63-23.78-16.75-7.11-33.77-14.34-51-20.14,24.73,4.77,48.93,12.22,72.56,19.49,39.35,12.11,80,24.62,122.6,24.62q1.53,0,3.06,0c40.51-.57,81.34-10,120.82-19.16,20.92-4.84,42.56-9.85,63.71-13.41,48.36-8.15,89.9-20.17,131.84-34.46v-.21c-42,14.29-83.51,26.32-131.87,34.47-21.16,3.57-42.8,8.57-63.73,13.42-39.47,9.13-80.29,18.58-120.78,19.15-43.67.62-85.32-12.19-125.59-24.58-24.1-7.42-48.8-15-74-19.78-19.37-6.42-39-11-58.92-11.53-37.52-1-79.24,11.85-119.59,24.31-27.54,8.51-53.55,16.54-78.36,20.51-16.88,2.69-34.07,5-51.74,6.94-20.9.4-41.83.26-62.48.13-10.12-.07-20.55-.14-30.71-.14h-2.95c-46.13,0-93-1.44-138.3-2.83C99.54,665,57,663.7,15.21,663.48c-4.16,0-8.36,0-12.59.18v.2q6.35-.21,12.59-.19c41.82.23,84.32,1.53,125.43,2.79,45.32,1.39,92.16,2.83,138.3,2.83h1.49c10.62,0,21.57.06,32.16.13,19.93.14,40.1.27,60.27-.08-49.32,5.31-102.45,7.7-163.33,7.46-32.65-.13-66.16-2.26-98.58-4.32-35.63-2.26-72.23-4.58-108.33-4.3v.2c36.09-.28,72.69,2,108.32,4.3,32.42,2.06,65.93,4.19,98.59,4.32,61.79.24,115.61-2.23,165.56-7.7,34.57-.66,69.08-2.81,102.23-8.91,21.78-4,42.48-10.35,62.5-16.48,18-5.52,36.57-11.21,55.32-15,21-4.18,40.19-5.48,58.77-4a282.87,282.87,0,0,1,29.73,4.09c17.72,5.87,35.2,13.3,52.41,20.6,20.67,8.79,42.05,17.87,63,23.79a375.37,375.37,0,0,0,87.14,14c4.92.2,9.85.29,14.82.29a398.46,398.46,0,0,0,73.17-6.91c75.05-14,148.34-35.52,211.95-62.14q7-2.93,13.59-5.47ZM653.93,624.78c-18.6-1.51-37.84-.21-58.83,4-18.76,3.74-37.36,9.44-55.34,15-20,6.14-40.7,12.48-62.48,16.49-32.43,6-66.16,8.14-100,8.86,16.9-1.89,33.37-4.12,49.55-6.71,24.82-4,50.84-12,78.39-20.51,38.81-12,78.89-24.36,115.27-24.36q2.13,0,4.26.06c19.38.53,38.55,4.89,57.44,11.06A282.49,282.49,0,0,0,653.93,624.78Z" transform="translate(-0.46 -1.52)"/><path d="M1199.7,652.17c-74.35,10.91-147.09,27-222.25,43.58-12,2.66-24.49,5.41-36.85,8.12-57.4,12.57-117.69,7.76-184.31-14.7-16.87-5.69-32.62-12.28-47.86-18.64-22.67-9.47-44.08-18.42-66.76-23.52a169,169,0,0,0-37.33-4.31A162.78,162.78,0,0,0,568,646.9q-29,6.6-57.47,11.6l2.56-.69c44.86-12,91.25-24.43,137.77-15.08,26.6,5.34,49.88,16.93,72.39,28.14,27.16,13.52,55.25,27.51,89.41,30.64,30.25,2.78,60.85,1.6,96.3-3.72,31.31-4.69,61.54-11.86,93.54-19.44,11.26-2.67,22.91-5.43,34.51-8.05,7.2-1.63,20.31-5.24,36.91-9.81,32.54-9,79.27-21.85,125.8-32.06v-.2c-46.56,10.21-93.3,23.09-125.85,32.06-16.6,4.58-29.71,8.19-36.9,9.81-11.61,2.62-23.25,5.38-34.52,8-32,7.59-62.21,14.75-93.52,19.45-35.43,5.31-66,6.49-96.26,3.71-34.12-3.13-62.18-17.1-89.33-30.62-22.52-11.22-45.81-22.81-72.44-28.16-46.57-9.35-93,3.07-137.86,15.09l-4.78,1.28C419.67,674.42,333.36,680,243,685.92L211.1,688C138,689.18,74.6,689.41,14,688.71c-3.73,0-7.53,0-11.37.1v.2c3.84-.09,7.64-.14,11.37-.09,59.52.67,121.72.47,193.18-.65-17.92,1.19-36.08,2.46-54.29,3.86-10.65.81-28.44,3.56-51,7-28.61,4.41-63.43,9.78-99.28,13.68v.2c35.86-3.9,70.7-9.27,99.31-13.68,22.53-3.48,40.33-6.22,51-7,19.54-1.5,39-2.85,58.21-4.13q17.83-.29,36.47-.65l1.52,0c38.38-.75,78.07-1.52,116.65-4.38,43.14-3.21,80.85-8.78,115.27-17,9-2.17,18.24-4.6,27.26-7q29.67-5.19,59.74-12c24.78-5.64,48.17-5.61,73.6.11,22.67,5.09,44.07,14,66.73,23.5,15.24,6.37,31,12.95,47.88,18.65,32,10.8,61.89,17.37,91.33,20.1a303.56,303.56,0,0,0,93.09-5.4c12.35-2.7,24.8-5.45,36.84-8.11,75.15-16.61,147.88-32.67,222.21-43.58ZM481,665.9c-34.42,8.26-72.11,13.83-115.24,17-38.58,2.86-78.27,3.63-116.65,4.38l-1.52,0q-16.56.33-32.46.59L243,686.11c89.65-5.83,175.28-11.4,263.07-26.63C497.72,661.7,489.26,663.91,481,665.9Z" transform="translate(-0.46 -1.52)"/><path d="M1199.7,663.51c-10.86,1.51-21.68,3.14-32.44,4.76-9.55,1.44-19.44,2.93-29.06,4.29-39.11,5.51-69.93,19.3-102.55,33.89-20.51,9.19-41.73,18.68-65.4,26.06-57.66,18-122,17.87-186-.34-25.91-7.38-50.63-20.41-74.54-33-12-6.34-24.22-12.77-36.66-18.51,8.56,3.23,17,6.52,25.24,9.75C739.81,706.64,779,722,825.31,726c8.58.74,17,1.09,25.25,1.09,55.25,0,104.53-15.43,156.29-31.64,8.31-2.61,16.91-5.3,25.52-7.92,34.21-10.43,69.92-15.34,104.45-20.1,20.7-2.85,41.89-5.76,62.88-9.88v-.2c-21,4.12-42.19,7-62.9,9.89-34.55,4.75-70.27,9.67-104.49,20.09-8.61,2.63-17.21,5.32-25.52,7.93-59.5,18.63-115.7,36.23-181.46,30.54-46.3-4-85.46-19.33-126.92-35.55-9.12-3.57-18.44-7.22-27.94-10.77-16.81-7.62-34.08-13.91-52-17-43.53-7.51-91.4,2.87-137.69,12.91-23.9,5.18-46.48,10.08-68.44,12.65-30.55,3.59-61.68,6.05-91.78,8.44-18.8,1.49-37.93,3-57.13,4.8l-10.13.46c-24.4,1.13-49.64,2.55-74,3.91-58.38,3.27-117.68,6.58-176.64,6.94v.2c59-.35,118.27-3.67,176.65-6.94,24.4-1.36,49.64-2.78,74-3.91l6.21-.28c-17.2,1.65-34.44,3.55-51.52,5.88-17.41,2.38-37.39,5.73-58.53,9.29-43.55,7.32-95.7,16.08-146.85,19.64v.2C53.79,733.1,105.94,724.34,149.5,717c21.15-3.55,41.12-6.91,58.52-9.28,18.38-2.51,36.94-4.52,55.43-6.26,8.42-.36,16.85-.7,25.07-1,58.8-2.36,119.6-4.81,179-17.25,9.31-2,18.48-4,27.34-6,27.27-6.14,53-11.94,79.12-13.71,29.21-2,54.92,1.37,80.93,10.53q7.82,2.75,15.5,5.64c13.34,6,26.4,12.93,39.27,19.7,23.91,12.61,48.64,25.64,74.58,33a351,351,0,0,0,96,13.75,302.06,302.06,0,0,0,90-13.41c23.68-7.38,44.9-16.88,65.43-26.06,32.6-14.59,63.4-28.38,102.48-33.88,9.63-1.36,19.52-2.85,29.07-4.29,10.75-1.62,21.56-3.25,32.41-4.76ZM655,673.81c-26-9.17-51.78-12.52-81-10.54-26.1,1.77-51.87,7.57-79.15,13.71-8.86,2-18,4.06-27.33,6-59.37,12.44-120.16,14.89-179,17.25-6.93.28-14,.56-21.07.86,17.85-1.64,35.63-3.05,53.12-4.43,30.11-2.39,61.24-4.85,91.8-8.44,22-2.58,44.55-7.47,68.46-12.66,35.21-7.64,71.34-15.47,105.78-15.47a187.39,187.39,0,0,1,31.83,2.56c16.89,2.91,33.21,8.67,49.1,15.7Q661.3,676.05,655,673.81Z" transform="translate(-0.46 -1.52)"/><path d="M912.84,751.08c17.85-3.65,36.29-8.28,55.6-14,11.61-3.42,28.87-9.67,50.71-17.59,49.07-17.78,118-42.75,180.55-56v-.19c-62.61,13.25-131.54,38.23-180.62,56-21.84,7.92-39.09,14.17-50.69,17.58-19.66,5.78-38.41,10.48-56.55,14.16Z" transform="translate(-0.46 -1.52)"/><path d="M728.89,749.82c-25.83-8.75-42.88-22.23-60.65-36.32-15.35-12.16-31.21-24.74-53.89-35.43-17.49-8.24-39-10.53-65.74-7-23.61,3.12-48.23,10.24-72.05,17.13-20.51,5.93-39.88,11.53-57.63,14.36-58,9.27-120.36,14.84-196.16,17.56C148.6,722.77,75,723.65,2.62,722.78v.2q26.7.32,53.57.34,82.55,0,166.59-3C298.59,717.6,360.92,712,419,702.76c17.75-2.83,37.13-8.44,57.65-14.37,23.8-6.89,48.42-14,72-17.12,26.71-3.52,48.17-1.24,65.63,7,22.65,10.68,38.51,23.25,53.84,35.41,17.66,14,34.6,27.4,60.16,36.16Z" transform="translate(-0.46 -1.52)"/><path d="M989.88,751.08c11-5.4,21.7-11.15,32.27-16.83,31.84-17.13,64.77-34.84,103.4-41.54,24.5-4.24,49.32-6,74.15-6.47V686c-24.84.45-49.67,2.23-74.18,6.48-38.66,6.7-71.61,24.42-103.47,41.56-10.67,5.74-21.5,11.55-32.62,17Z" transform="translate(-0.46 -1.52)"/><path d="M696.45,749.92c-11-5.93-21.37-12.31-31.62-18.62-17.32-10.65-35.23-21.67-55.53-30.37a133.14,133.14,0,0,0-33.14-9.43,150.88,150.88,0,0,0-22.42-1.62q-5,0-10.24.3c-21.68,1.22-42.76,6-65.08,11-15.11,3.39-30.74,6.9-46.45,9.18-37.61,5.44-76.45,8.23-114,10.93-28.21,2-57.39,4.12-85.81,7.33-26.08,2.94-52.66,6.75-78.36,10.43-31,4.44-62.5,8.94-94,12.07h1.93c30.9-3.12,61.79-7.53,92.13-11.87,25.71-3.68,52.29-7.49,78.36-10.43,28.42-3.21,57.6-5.3,85.81-7.33,37.56-2.7,76.4-5.49,114-10.94,15.72-2.27,31.35-5.78,46.46-9.17,22.31-5,43.38-9.74,65.05-11a158.05,158.05,0,0,1,32.62,1.32,133,133,0,0,1,33.09,9.41c20.29,8.7,38.19,19.71,55.5,30.36,10.19,6.28,20.55,12.62,31.44,18.52Z" transform="translate(-0.46 -1.52)"/><path d="M1010.87,751.08c32.7-15.68,66.59-30.82,103.32-36.38,27.87-4.22,56.74-4.54,85.51-3.58v-.2c-28.78-1-57.66-.64-85.54,3.58-36.9,5.59-70.92,20.83-103.76,36.58Z" transform="translate(-0.46 -1.52)"/><path d="M603.8,746.36C597.13,741.14,592,735,587,729.1c-8.59-10.19-16.7-19.82-31.34-23.81a69.06,69.06,0,0,0-18-2.09c-18.24,0-39.89,4.83-59.61,9.23-10.95,2.44-21.3,4.74-30,6-76.11,10.7-152.88,20.4-228.18,28.85q-11.67,1.31-23.42,2.58h1.85l21.59-2.38C295.2,739,372,729.28,448.08,718.59c8.68-1.22,19-3.53,30-6,26.73-6,57-12.72,77.5-7.14,14.58,4,22.68,13.58,31.25,23.74,5,5.94,10.17,12.07,16.85,17.3,1.43,1.12,2.89,2.21,4.35,3.3h.34C606.82,748.68,605.29,747.53,603.8,746.36Z" transform="translate(-0.46 -1.52)"/><path d="M991,751.08c5.06-2.38,10.08-4.78,15-7.16,37.3-17.88,72.52-34.77,115.48-40,8.58-1,42-.51,78.23.69v-.2c-12.35-.41-24.1-.74-34.66-.95-23.21-.47-38.29-.38-43.59.26-43,5.22-78.24,22.12-115.55,40-5.09,2.44-10.23,4.9-15.42,7.34Z" transform="translate(-0.46 -1.52)"/><path d="M538.73,698c24.07.81,44,9.19,62.85,26.37a294.52,294.52,0,0,0,32,25.41h.35a296.84,296.84,0,0,1-32.21-25.56c-18.84-17.21-38.85-25.61-63-26.42-21.59-.73-44,4.69-67.78,10.43-15.33,3.71-31.18,7.54-47.82,10-67,9.84-133.72,14.62-213.28,18.77-60.3,3.15-131.58,6.38-203,6.53H2.62v.19H6.9c71.39-.15,142.67-3.38,203-6.53,79.56-4.15,146.28-8.93,213.29-18.77,16.65-2.44,32.51-6.28,47.85-10C494.75,702.73,517.18,697.3,538.73,698Z" transform="translate(-0.46 -1.52)"/><path d="M1042.68,751.08c17.45-8.79,35.69-16.09,55.26-20.24,32.37-6.86,67-6.49,101.76-3.89v-.2c-34.78-2.6-69.41-3-101.8,3.89-19.73,4.18-38.1,11.57-55.66,20.44Z" transform="translate(-0.46 -1.52)"/><path d="M537.15,744.28a127.26,127.26,0,0,0-39-8.59c-2.55-.14-5.1-.21-7.68-.21-23,0-47.66,5.6-83.83,14.29l-.23.05h.86c39.86-9.57,65.66-15.35,90.87-13.93a127.51,127.51,0,0,1,39,8.57q6,2.31,12.36,5.36h.47C545.52,747.72,541.27,745.86,537.15,744.28Z" transform="translate(-0.46 -1.52)"/><path d="M547.93,727.91c-14.09-7-29.17-9.81-47.48-8.79-42,2.35-85.33,13.46-127.21,24.22-8.47,2.17-17,4.35-25.6,6.48h.83q12.48-3.11,24.82-6.29c41.87-10.75,85.16-21.87,127.17-24.21,18.27-1,33.33,1.77,47.38,8.76,11.27,5.62,20.75,13.38,30.49,21.74h.3C568.83,741.4,559.29,733.56,547.93,727.91Z" transform="translate(-0.46 -1.52)"/><path d="M1028,751.08c28.36-12.93,57.46-23.48,91.77-27.24,10.27-1.13,42.93-3.74,79.89-5v-.2c-37,1.22-69.64,3.82-79.91,4.95-34.5,3.78-63.73,14.42-92.24,27.44Z" transform="translate(-0.46 -1.52)"/><path d="M1086.52,751.08c3.54-.57,7.08-1.06,10.61-1.44q-3.87.68-7.74,1.44h1c3.24-.63,6.48-1.22,9.73-1.75,33-3.18,66.52-1.66,99.53,1v-.2c-19.86-1.62-39.89-2.82-59.89-2.82-12.22,0-24.44.45-36.59,1.51q5.8-.89,11.65-1.57c5-.58,11.17-1.41,18.34-2.37,17.9-2.39,41.56-5.56,66.49-7.61v-.2c-24.94,2-48.61,5.22-66.52,7.61-7.17,1-13.36,1.79-18.33,2.37s-9.83,1.26-14.7,2.06l-2.28.22q-6.27.66-12.57,1.72Z" transform="translate(-0.46 -1.52)"/><path d="M421.89,749.82c20.42-3.74,38.33-3.9,55.76-.62,1,.19,2,.41,3,.62h1c-1.31-.29-2.63-.57-3.95-.82-17.76-3.34-36-3.11-56.9.82Z" transform="translate(-0.46 -1.52)"/></g></svg>